<svg id="Layer_1" data-name="Layer 1" xmlns="http://www.w3.org/2000/svg" viewBox="0 0 288 288"><title>icons</title><path d="M193.39,15.12c5.64-4.63,13.4-12.4,21.48-9.94,10.68,3.25,10.32,17.32,6.61,25.47C216,42.71,204,52.2,194.92,61.53,175,82,154.36,101.92,136.11,124c-7.92,9.56-15,17.14-12.32,30.32a66.69,66.69,0,0,0,2.5,8.82c1.15,3.29,3.47,6.92,4.07,10.32l.51,1.39q.05,4.51-3.31,4.67c-.52.38-.85.24-1.21.49a4.1,4.1,0,0,0-1.59,2.71c-.77,3.34.56,4.81-1.74,7.8-1.13,1.47-2.77,2.12-3.71,3.51-.23.35-.22.87-.42,1.2-1.14,1.91.1,1.42-2.63,4.68-1,1.18-.9,0-1.62,1.69-1.07,2.55,1.44,2.9-2,5.73-.63.52-1.49.47-2.13,1a3.18,3.18,0,0,0-1.24,2c-1.19,3.73,1.31.37-3.5,4.89-.39.37.07-.84-.89.51a4.6,4.6,0,0,0-.87,1.92c-.33,1.28.08,2.87-.45,4.08-2.24,5.13-2.26.86-4.37,2.38A4.68,4.68,0,0,0,97,226.93c-.12.25-.7,2.75-.16,1.31l-3.07,4.35a5.08,5.08,0,0,0-1.18.69c-.94,1.36-.84,2.71-1.53,4.13-2,4.07-2.78,1.1-4.07,3-1.43,2.07-.17,4-2.74,5.9-1,.7-2,.53-2.83,1.56-1.18,1.46-.78,3.5-1.47,5.12-1.62,3.74-2.92,1.7-4.85,3.6-1.74,1.71-2,4.22-4.28,5.73-1.13.75-2,.89-2.77,2.11-.45.76-.29,1.51-.63,2.26-1.07,2.33-3.6,4.12-5.56,5.75-2.84,2.37-5.73,5.12-9.32,6.31-2.65.88-5.72.73-8.48.73-5.21,0-11.59-.67-10.1-7.64a21.4,21.4,0,0,1,1.48-3.88c5.27-12.24,10.33-24.66,16.1-36.67,6.13-12.77,13.84-24.82,21-37,6.2-10.54,12.38-21.09,18.64-31.59,13.93-23.37,28.4-46.47,43.6-69Q149,72.44,164.36,52.05c9.48-12.62,16.71-26.68,29-36.94.37-.31-.16-.84-.53-.53-11,9.13-17.86,21.18-25.94,32.71-9.52,13.58-19.68,26.7-29,40.4-15.51,22.71-30.15,46-44.36,69.58-6.81,11.28-13.45,22.66-20.13,34-8,13.55-16.6,26.94-23.28,41.19C44.45,244.55,38.84,257,34,269.38c-1.11,2.83-1.74,6.66.6,9.12,2.95,3.1,10.28,1.86,14,1.59,5.15-.37,8.78-3,12.64-6.22,1.75-1.46,4.11-2.79,5.56-4.54a8.77,8.77,0,0,0,1.31-2.48,8.86,8.86,0,0,1,3.56-4.15,8.63,8.63,0,0,0,2.79-2.82c1.47-2.1,3.74-2.95,5.33-4.83,1.08-1.28.75-3.08,1.37-4.51,1.1-2.51,3.91-2.82,5.25-4.85.37-.56.2-1.13.43-1.66.41-.93,1-2.82,1.84-3.5.33-.25,1.11,0,1.42-.29a4.94,4.94,0,0,0,1.66-2.62c.72-2.36,1.41-2.9,3.42-4.74.32-.3,1-.4,1.25-.76,1.95-2.57.85-5.33,4.32-7.46,1.17-.72,2.3-.3,3.16-1.66,1.8-2.85-.86-4.55,3.16-7.1,1.07-.68,1.41.08,2.25-1a4,4,0,0,0,.37-1.1c.74-2.29.69-3.74,2.8-5.55,1.1-.94,2-.94,2.54-2.38.39-1-.15-2.18.19-3.1.58-1.56,2.57-1.85,3.35-2.94s.47-1.82.9-2.81c1.15-2.64,3.61-3.33,5.09-5.44,1-1.37.8-3.31.81-4.87,0-2.15-.15-2.68,1.18-4.66,1.74-2.6,1.63-1.13,3.67-2.36,4-2.43-.07-8.56-1.27-11.56-3-7.58-6.67-16.75-4.73-25,1.9-8,8.56-13.78,13.49-20,9.87-12.35,20.93-23.4,32-34.66,11.78-12,23.43-24.06,35.14-36.1,8.35-8.58,18.69-17.82,19.78-30.55.86-10-6.53-20.86-17.56-17-5.38,1.89-9.91,6.19-14.24,9.75C192.48,14.89,193,15.42,193.39,15.12Z"/></svg>