<svg id="Layer_1" data-name="Layer 1" xmlns="http://www.w3.org/2000/svg" viewBox="0 0 288 288"><title>icons</title><path d="M207.5,20.51c4-4,9.37-9.14,15.42-9.17,7.4,0,9.44,9.11,9.32,15-.26,12.82-8.19,25.12-15.32,35.29-13.1,18.68-29.21,35.33-44.19,52.51-15.22,17.45-30.47,35.36-41.24,56-4.33,8.29-7,16.66-5.87,26.1,1.4,11.41,5.93,22.7,2.82,34.24-3.17,11.73-11.89,21.54-20.89,29.31S86.75,275.38,74.66,277c-10.89,1.44-20.49-2-27-11.15-7.64-10.63-5.81-24.58-2.42-36.42s9.25-23.58,18-32.51a48.57,48.57,0,0,1,13.68-9.95c5.62-2.68,11.81-3.71,17.69-5.62,8.06-2.62,15.63-6.36,21.16-13,6.48-7.75,9.27-17.67,13.48-26.67,10.24-21.93,23.43-42.82,36-63.5,6.92-11.38,14.17-22.57,22-33.35,6.27-8.64,13.22-16.38,20.28-24.33.32-.36-.21-.89-.53-.53C200.7,27,194.4,33.88,188.75,41.49,180.93,52,173.71,63,166.82,74.15,154,94.88,140.92,116,130.23,137.88c-5.27,10.8-8.39,23.45-17,32.2-9.28,9.38-21.9,10.35-33.57,14.88-21.23,8.24-33.52,31.78-37.19,53.14-1.77,10.29-1.17,21,5.58,29.44,6.06,7.57,13.83,11,23.4,10.46,20.14-1,40.42-17.82,51.33-33.82,6.43-9.43,8.53-19.3,6.84-30.51-.81-5.36-2.17-10.63-3-16-1.27-8.53.22-16.14,3.86-23.89,11.43-24.28,30.18-44.74,47.67-64.74,17.94-20.51,39.5-41,50.63-66.26,3.68-8.36,7.68-22.25.07-29.84C222,6.15,211.8,15.1,207,20A.38.38,0,0,0,207.5,20.51Z"/></svg>