<svg id="Layer_1" data-name="Layer 1" xmlns="http://www.w3.org/2000/svg" viewBox="0 0 288 288"><title>icons</title><path d="M192.11,12c5.09-.91,10.61-1,14,3.5s3,11.14,2,16.41C206.56,41.2,202,49,197,56.76c-10.47,16.35-22.65,31.51-34.36,47-11.23,14.83-22.09,30.06-30.54,46.69a155.37,155.37,0,0,0-9.94,24.1c-1.87,6-5.67,14.67-1.53,20.44,2.73,3.79,6,6.32,7.2,11.1s.15,10-1.35,14.63c-2.68,8.25-6.83,16.08-10,24.16-3.51,8.9-6.11,18.23-9.86,27-.54,1.27-2.43,6-4.19,5.5-1.46-.45-.65-3.78-.5-5.46a97.44,97.44,0,0,1,2.87-16c2.38-9.23,5.68-18.18,8.51-27.27,1-3.27,3.23-9.58-1.63-11.09-6.16-1.91-9.18,10.83-10.3,14.61-1.39,4.67-2.79,9.19-4.49,13.78s-3.36,8.9-5.14,13.31c-1.39,3.45-4,14.07-8.06,14.65-2.89.41-1.68-.73-1.36-3.1.16-1.15.32-2.28.53-3.42.41-2.31.93-4.59,1.5-6.86,1.15-4.57,2.58-9.07,4-13.55,2.83-8.67,6-17.36,7.65-26.36.48-2.65.92-7.73-3.19-7.53-2.08.1-3.3,2.17-4.07,3.8-1.85,3.91-3.3,8.07-5.14,12-3.83,8.2-7.1,16.61-10.11,25.14-.86,2.43-1.73,4.84-2.73,7.22-.1.24-.94,2.84-1.37,3.11-7.73,4.88-4.41-2.37-4.48-3.63-.12-2.2,1.25-5.27,1.82-7.42.64-2.45,1.33-4.88,2-7.31,2.74-9.39,5.87-18.67,8.59-28.06.43-1.47,4.07-11.2-1.23-10.36-1.51.24-1.94,2-2.52,3.14-2.47,4.85-4.81,9.76-7.21,14.64-3.51,7.13-7.42,14.18-10.47,21.51-.92,2.2-1.7,4.45-2.62,6.65-.57,1.37-4.91,11.11-5.89,4-.3-2.17,1.17-5.34,1.89-7.37,1.32-3.74,2.79-7.44,4.2-11.15,3.44-9.11,6.83-18.25,10.32-27.34,3.41-8.88,8-20.46,18.45-22.58,6.28-1.27,12.59-.3,17.94-4.53,4.66-3.68,7.28-9.49,9.45-14.86,7.34-18.16,14.67-36.26,22.79-54.1,8.28-18.19,16.93-36.22,25.73-54.16q5.95-12.12,12-24.19c2.68-5.39,5.21-10.74,8.74-15.63,3.15-4.38,7.86-8.19,13.19-9.54a.38.38,0,0,0-.2-.72C180.46,14.22,175,25.74,170.25,35.39c-10,20-19.85,40-29.37,60.25s-18.69,40.43-27,61.1c-3.43,8.57-5.94,19.31-12.77,25.94S85,185.82,77.3,190c-7.17,3.92-10.79,12.68-13.61,19.89-4.09,10.46-7.95,21-11.91,31.52-1.68,4.44-6.23,12.5-5.09,17.6.57,2.56,2.64,2.67,4.27.89,3.31-3.61,4.39-10,6.35-14.41,4.56-10.2,9.91-20.12,14.84-30.14.86-1.74,4.42-11.58,5.79-2.26.3,2-1.5,5.33-2.1,7.33-1.71,5.75-3.55,11.45-5.32,17.18-1.59,5.13-3.14,10.27-4.51,15.46-.94,3.57-3.32,8.73-2.34,12.49.43,1.66,1.41,2.75,3.29,2.37,3.15-.64,4.53-6.42,5.48-8.88,4.58-11.88,9.09-23.58,14.34-35.19.32-.72.64-1.42.95-2.15,1.32-3.17.46-2.83,4.54-3.71,4.42-.95,3.6-1.14,3,2.36-.29,1.74-.72,3.46-1.14,5.18-1.42,5.74-3.26,11.36-5.11,17-3.61,10.94-7.17,21.89-8,33.44a.38.38,0,0,0,.28.36c4.2.85,5.68-4.08,7.05-7.18,2.58-5.83,5-11.75,7.24-17.7,3-7.92,5.17-16.06,8.09-24,1-2.74,2.88-8.64,6.3-9.34,6.26-1.28,3.16,8.51,2.32,11.16-1,3.23-2.09,6.44-3.14,9.65-4.31,13.1-8.35,26.32-8.21,40.24a.38.38,0,0,0,.56.32c6.92-4.37,8.44-14.89,11-22,4-11.2,9-22,13.38-33,3-7.49,5-16.28.61-23.65a27.65,27.65,0,0,0-3.39-4.23c-3.32-3.72-3.93-7.08-2.86-12.12a121,121,0,0,1,5.33-17.58c17.13-45.26,54.8-77.53,77.85-119.25,4.34-7.86,7.74-18.54,5.6-27.56-2-8.52-9.36-10.18-17.13-8.8C191.43,11.39,191.63,12.12,192.11,12Z"/></svg>