<svg id="Layer_1" data-name="Layer 1" xmlns="http://www.w3.org/2000/svg" viewBox="0 0 288 288"><defs><style>.cls-1{fill:none;}</style></defs><title>icons</title><path class="cls-1" d="M185.67,16.36c23.08-4.77,17.05,23.13,10.62,34.24-12.95,22.38-29.87,42.16-45.13,63S122,157.14,116.52,182.4c-.48,2.2-.89,4.55-.14,6.68.91,2.59,3.31,4.31,5,6.45,7,8.79,2.72,20-1.27,28.85-5.48,12.12-10.16,24.67-14.42,37.27-1.37,4.06-3,8.52-6.77,10.54-.43-17.53,6.84-34.18,11.88-51,.68-2.25,1.18-5-.54-6.65-7.05-6.55-11.67,16.11-12.74,19.07-3.91,10.84-8,21.63-12.8,32.11-.92,2-2.88,4.41-4.85,3.38,1.14-18.55,10.45-35.62,13.81-53.9.38-2.1.39-4.82-1.55-5.71s-4.21,1.15-4.9,3.26a75.64,75.64,0,0,1-4.15,9.85,229.43,229.43,0,0,0-9,21.7,143.71,143.71,0,0,1-5.33,13.86c-.79,1.64-2.3,3.52-4,2.92S63,258,63.4,256.23C66.86,240,72.61,225,76.94,209.12a5.82,5.82,0,0,0,.18-3.69c-.48-1.16-2.13-1.88-3-1a2.88,2.88,0,0,0-.51.8l-17,34.59c-1,2.13-5,14.06-7,14.67-5.06,1.55-1-9.27-.18-11.48l12.87-34.09c2.53-6.7,5.18-13.6,10.16-18.74,7.49-7.73,15.48-3.12,23.23-7.41,6.48-3.58,9.84-12.32,12.31-18.83,16.76-44.07,46.51-103.09,59.8-129.83,1.42-2.41.9-2.43,4.3-7.17A23.93,23.93,0,0,1,185.67,16.36Z"/></svg>