<svg id="Layer_1" data-name="Layer 1" xmlns="http://www.w3.org/2000/svg" viewBox="0 0 288 288"><defs><style>.cls-1{fill:none;}</style></defs><title>icons</title><path class="cls-1" d="M161.83,104.24c4-2.93,35.14-25.63,52.78-38.33a201,201,0,0,1,20.48-12.64l24.39-13.68c2.68-1.65,6.8-2.09,8.46.58a6.67,6.67,0,0,1,.71,3.8c-.13,3.52.11,8.11-.51,11.51-.9,4.92-5.84,10.19-8.48,14.32a6.54,6.54,0,0,1-2.05,2.3c-1,.55-2.14.6-3,1.22-1.79,1.24-1.68,4.12-3.39,5.46-1.09.86-2.75.91-3.61,2s-.62,2.42-1.24,3.5c-1.41,2.46-5.7,1.66-7.23,4.05-.77,1.2-.62,3-1.75,3.84-1.28,1-3.56.26-4.48,1.6-.52.76-.29,1.81-.64,2.66-.87,2.07-4.25,1.52-5.67,3.25-.82,1-.77,2.49-1.61,3.47a2.91,2.91,0,0,1-1.11.78c-1.63.69-3.89.42-5,1.83s-.42,3.44-1.45,4.78c-1.66,2.17-6.2.74-7.08,3.32-.28.82,0,1.77-.38,2.55-.84,1.78-3.7.94-5.28,2.11s-1.33,3.65-2.89,4.66-3.9.05-5,1.44c-.64.81-.49,2-1.13,2.86-1.06,1.35-3.39.62-4.75,1.66s-1.12,2.81-2,4.07c-2.22,3.22-8.61.43-10.56,3.82-.8,1.39-.42,3.36-1.55,4.51s-3.18.71-4.76.15c-6.21-2.21-12.14-4.47-18.76-5a21.77,21.77,0,0,0-6.16.15c-3.63.73-6.75,3-9.73,5.18-4.11,3-7,7-10.72,10.4-12.3,11.19-22.89,24.37-33.89,36.87L58.52,228.16c-5.32,6-10.87,12.27-18.18,15.65a19.5,19.5,0,0,1-11.15,1.91,11.83,11.83,0,0,1-9-6.41c-1.49-3.31-1-7.23.49-10.54,2.23-5,6.46-8.53,9.16-13.18a55.5,55.5,0,0,1,9.44-11.72c7-6.9,15.24-12.42,22.52-19C78,170.2,94.68,156.18,111.71,142.59c12.94-10.33,36.32-28.08,39.34-30.33S157.86,107.17,161.83,104.24Z"/></svg>