<svg id="Layer_1" data-name="Layer 1" xmlns="http://www.w3.org/2000/svg" viewBox="0 0 288 288"><defs><style>.cls-1{fill:#12387a;}</style></defs><title>icons</title><path class="cls-1" d="M188.89,160.74c-9.2,9-21.12,16.74-33.68,20-6.06,1.55-12.89,2-18.49-1.31-5.17-3-6.56-7.85-6.41-13.58.73-28.69,26.3-57.4,56.62-51.24,10.15,2.06,17.49,9,16.95,19.85-.53,10.61-7.87,19.14-15,26.32-4.08,4.12,2.28,10.48,6.36,6.36,7.83-7.9,15.28-17.05,17.15-28.34,1.62-9.8-1.08-20-9-26.42-16.08-13.05-41.82-7.8-57.17,3.66-13.34,10-21.5,26.44-24.2,42.68-1.2,7.23-1.41,15.44,2.8,21.81,4.33,6.56,12.44,9.84,20,10.3,18.42,1.11,37.72-11.3,50.36-23.69C199.39,163,193,156.68,188.89,160.74Z"/><path class="cls-1" d="M137,125.1C123,132,110.7,143,100.19,154.41c-10.75,11.69-20.52,25-24.84,40.45C70.75,211.34,73,229.7,86.92,241c11.79,9.61,28.06,12.62,42.93,11.51,34.78-2.6,65.49-23,83.6-52.37,5-8.17,9.44-16.73,14.72-24.76,5.18-7.87,11.59-14.61,17.91-21.56,10.84-11.92,20.9-25.3,20.48-42.2-.19-7.74-2.58-15.63-8-21.33-6.48-6.78-16.33-9-25.41-8.93-20.34.11-39.07,12.33-54.13,24.9-4.45,3.71,1.94,10.05,6.36,6.36,12-10,26.36-19.56,42.13-21.85,7.59-1.1,17.28-.59,23.38,4.6,4.49,3.82,6.43,9.86,6.67,15.59.65,15.3-9.18,27-18.94,37.7a212.83,212.83,0,0,0-14.73,17.16c-5,6.79-9.12,14.19-13.32,21.49-7.9,13.74-16.74,26.35-29.44,36.09a100.12,100.12,0,0,1-39.73,18.38c-13.23,2.85-28,3.08-40.51-2.64C86.39,232.55,80,218.64,82.7,203.09c2.74-15.92,12.22-29.43,22.83-41.18,10.28-11.38,22.17-22.21,36-29,5.19-2.56.64-10.33-4.54-7.77Z"/><path class="cls-1" d="M84.68,239.06c13.81,15.79,31.74,28,52.43,32.52a94.2,94.2,0,0,0,53.35-4.16,99.6,99.6,0,0,0,43.48-31.72c14.59-18.83,22.64-42.28,30-64.66,7.77-23.52,13.82-51.47-1-73.55-3.22-4.78-11-.28-7.77,4.54,12.37,18.39,8,41.31,1.87,61.16-6.28,20.49-13.56,41.89-25.22,60C213.54,251.6,179,268.73,145.24,264c-21.59-3.06-40-15.05-54.19-31.25-3.82-4.37-10.16,2-6.36,6.36Z"/><path class="cls-1" d="M78.89,216.45c-11.84,1-23.32,2.23-32.56-6.79-8.1-7.91-11.61-19.18-12.61-30.2-1.22-13.45.21-27.17.87-40.62L36.6,98c.63-12.71.51-25.73,2.19-38.35,1.51-11.34,6.45-21.36,17.56-25.79C78,25.25,100.51,41,114.61,56.2,131.11,74,140.3,97.43,142,121.53c.4,5.75,9.4,5.79,9,0-1.7-24.55-10.27-48-26-67.09C109.8,36,85.61,18.44,60.41,23.33,49,25.55,38.88,32.64,34,43.33c-5.59,12.21-5,26.6-5.65,39.73L26,130.88c-.76,15.47-2.46,31.23-1.41,46.7,1,14,5,28.42,15.39,38.45,11.14,10.79,24.43,10.69,38.92,9.43,5.73-.5,5.78-9.5,0-9Z"/><path class="cls-1" d="M68.61,146.12c14.86,4.07,27.08-9.8,30.79-22.81,2.95-10.34,3.6-23.71-2.49-33.1C91,81.1,78.11,78.5,69.28,85c-9.2,6.76-13,19.41-14.16,30.27-1.21,11.64,1.2,26.23,13.49,30.85,5.43,2,7.77-6.65,2.39-8.68-6.61-2.49-7.3-12.28-7.15-18.17.21-8,2.35-17,7.25-23.51,4-5.34,11.82-7.85,17-2.35S93,108.46,92,115.3c-1.48,9.61-8.57,25.53-21,22.14C65.41,135.91,63,144.59,68.61,146.12Z"/><path class="cls-1" d="M73.25,31.67a98.28,98.28,0,0,1,53.06,19.16C134.7,57.22,141,66.25,146.64,75c6.54,10.22,12.07,21,17.58,31.83,2.64,5.16,10.4.61,7.77-4.54-10.66-20.87-21.87-44.9-41.14-59.27C114.72,31,93.34,23.58,73.25,22.67c-5.79-.26-5.78,8.74,0,9Z"/><path class="cls-1" d="M99.85,65.27C106.24,75,112.52,84.9,116,96.1c4.19,13.69,4.32,28.17,3.79,42.35-.21,5.79,8.79,5.78,9,0,.55-14.94.3-30.33-4.12-44.74-3.66-12-10.18-22.61-17-33-3.17-4.82-11-.32-7.77,4.54Z"/><path class="cls-1" d="M76,200.21a22.5,22.5,0,0,1-27.36-12c-2.45-5.24-10.21-.68-7.77,4.54C47.3,206.51,64,213.58,78.4,208.89c5.48-1.79,3.14-10.48-2.39-8.68Z"/></svg>