<svg id="Layer_1" data-name="Layer 1" xmlns="http://www.w3.org/2000/svg" viewBox="0 0 288 288"><defs><style>.cls-1{fill:#12387a;}</style></defs><title>icons</title><path class="cls-1" d="M174.27,247.68c-18,6.22-36,12.44-54.44,17.44-11.26,3.06-22.62,6.48-34.1,8.62-5.37,1-11.22,1.9-16.67,1.06-7.14-1.1-7.44-6.59-9.32-12.79-5.44-18-11.14-36.08-14.38-54.68-1.28-7.36-1-16.65-7-22.17-2.4-2.23-6-2.77-8.27-5-2.63-2.51-2.58-6.8-2.07-10.14,2.53-16.42,15.46-30.09,29.32-38a144.42,144.42,0,0,1,23.71-10.41c9-3.22,18.33-6.27,27.92-7.31,17.26-1.87,36.8,5.38,49.45,17.32,3.55,3.35,6.47,7.46,7.5,12.31,1.08,5-.89,8.78-2.34,13.43-2.87,9.16,1.57,19.85,3.47,28.86q3.42,16.17,6.28,32.46,1.35,7.66,2.57,15.35c.46,2.91,1,5.84,1.35,8.76s-.27,3.93-3,4.92c-5.41,1.95-3.08,10.65,2.39,8.68,3.23-1.16,6.48-2.54,8.35-5.59,2.34-3.82,1.28-8.28.65-12.44q-2.55-16.82-5.7-33.55-3.05-16.25-6.67-32.38c-1.24-5.53-2.17-9.55-.11-15A26.36,26.36,0,0,0,175,143.69c-2.76-18.51-23.1-29.37-39-35.1-20.37-7.34-41-1.72-60.52,5.47-17.73,6.52-34.82,15.16-46,30.92-7.85,11-18.37,34.46-2.65,43.84,4.15,2.48,6.71,3.19,7.92,8.45s1.57,10.8,2.6,16.13c2.09,10.84,5,21.51,8,32.1,1.49,5.12,3,10.23,4.59,15.34,1.41,4.67,2.39,9.84,4.5,14.26,2.51,5.24,7.62,7.69,13.15,8.53,14.19,2.15,29.11-3,42.64-6.71,22.43-6.08,44.43-13,66.4-20.55C182.11,254.49,179.77,245.79,174.27,247.68Z"/><path class="cls-1" d="M31.82,157.83C34.1,140.71,48,127,61.61,117.64a116.89,116.89,0,0,1,52.8-19.8c10-1.09,21.18-1.16,30.36,3.39,8.59,4.26,15.93,11.08,21.75,18.63,5.61,7.27,10.51,16,11.19,25.3.67,9.15-2.4,18.1-2,27.27.49,12.9,6.44,24.48,8.38,37.07,1.87,12.11-1.73,25.14-6.48,36.22-2.26,5.27,5.49,9.86,7.77,4.54,4.62-10.77,8.08-22.37,8.15-34.18.08-12.82-5.73-24.49-8-36.89-2.08-11.13,1.65-21.51,1.33-32.56-.31-10.69-4.9-20.76-11-29.35a79.42,79.42,0,0,0-22.13-21.4c-9.69-6.06-20.73-7.84-32-7.54-21.34.58-43.19,7.84-61.16,19.3S25.76,135.8,22.82,157.83c-.76,5.72,8.24,5.67,9,0Z"/><path class="cls-1" d="M70.54,103.4C59.73,97,73.84,83.55,79.17,79a107.54,107.54,0,0,1,26.58-16.65,106.26,106.26,0,0,1,65-6.6,107.62,107.62,0,0,1,31.44,12.11c8.14,4.73,18.1,11.62,19.77,21.66.89,5.33-1.43,10.71-2.34,15.9a95.13,95.13,0,0,0-1.31,18.57c.28,12.13,2.37,24.1,3.76,36.13,1.31,11.33,4.33,27.3-4.73,36.28-7.32,7.26-19.42,7-29,7.46-5.77.26-5.8,9.26,0,9,10.56-.47,22.41-.7,31.46-6.91,10.38-7.13,12.87-19.09,12.47-31-.5-14.94-3.64-29.64-4.67-44.54a99.54,99.54,0,0,1,.39-20.81c.94-6.64,3.66-13.11,3-19.9-1.12-11.63-10.18-20.46-19.4-26.62A112.65,112.65,0,0,0,174.84,47.4a116.39,116.39,0,0,0-75.12,7.81C87,61.07,74,69.56,64.9,80.31c-7.59,8.94-10.79,23.78,1.1,30.87,5,3,9.52-4.8,4.54-7.77Z"/><path class="cls-1" d="M67.25,93.9C76.44,70.26,96.4,53.52,114.9,37.18c11-9.7,22.67-18.78,37.3-21.93,13.41-2.88,28-2.08,41.62-1.07,21.48,1.6,42.84,8,53.74,28.09a68.88,68.88,0,0,1,6.88,19.21c1.56,7.91-.19,13.77-2.5,21.19-3.52,11.33,2.59,25.63,5,36.75,1.44,6.75,2.72,13.89,1.75,20.81-1.07,7.58-6.07,12.18-10.61,17.91-8.71,11-16,23.29-26.58,32.68-4.34,3.85,2,10.2,6.36,6.36,10.34-9.18,17.54-21.1,26-31.91,4.24-5.44,9.49-10.19,12-16.77,2.19-5.79,2.46-12.2,1.89-18.3a145.66,145.66,0,0,0-3.82-20.62c-1.58-6.58-4-13.83-3.85-20.67.11-3.77,2-7,3-10.52a36.21,36.21,0,0,0,1.1-12.13,70.54,70.54,0,0,0-5.54-21.63c-9.62-23.36-30.13-35-54.36-38.35A203,203,0,0,0,163,4.81c-16.51,1.13-30.55,6.87-43.59,17A347.36,347.36,0,0,0,85.25,52.22C74,63.63,64.42,76.47,58.58,91.51c-2.1,5.4,6.6,7.74,8.68,2.39Z"/><path class="cls-1" d="M82,238.5h1a4.64,4.64,0,0,0,3.18-1.32,4.5,4.5,0,0,0,0-6.36A4.68,4.68,0,0,0,83,229.5H82a4.64,4.64,0,0,0-3.18,1.32,4.5,4.5,0,0,0,0,6.36A4.68,4.68,0,0,0,82,238.5Z"/><path class="cls-1" d="M107,248.5c5.79,0,5.8-9,0-9s-5.8,9,0,9Z"/><path class="cls-1" d="M140,226.5c5.79,0,5.8-9,0-9s-5.8,9,0,9Z"/><path class="cls-1" d="M77,171.5h1a4.64,4.64,0,0,0,3.18-1.32,4.5,4.5,0,0,0,0-6.36A4.68,4.68,0,0,0,78,162.5H77a4.64,4.64,0,0,0-3.18,1.32,4.5,4.5,0,0,0,0,6.36A4.68,4.68,0,0,0,77,171.5Z"/><path class="cls-1" d="M187,92.5h1a4.64,4.64,0,0,0,3.18-1.32,4.5,4.5,0,0,0,0-6.36A4.68,4.68,0,0,0,188,83.5h-1a4.64,4.64,0,0,0-3.18,1.32,4.5,4.5,0,0,0,0,6.36A4.68,4.68,0,0,0,187,92.5Z"/><path class="cls-1" d="M194,128.5c5.79,0,5.8-9,0-9s-5.8,9,0,9Z"/></svg>