<svg id="Layer_1" data-name="Layer 1" xmlns="http://www.w3.org/2000/svg" viewBox="0 0 288 288"><defs><style>.cls-1{fill:#12387a;}</style></defs><title>icons</title><path class="cls-1" d="M140.83,14.06c6.65-1,11.08-.35,15.73,4.69,3.83,4.14,7.36,8.59,11,12.89L190.4,58.5l3.18-7.68c-10.46,1.21-15,10.77-13.86,20.55,1.53,12.63,11.66,19,22.26,24.07,6.67,3.22,13,6.35,18.22,11.78,5.57,5.84,10.22,12.65,15.13,19l32.51,42.35,5.08-6.61c-17.64-3.12-35.31-6.12-52.94-9.35-3.47-.63-7.29-1.16-10-3.57-2.55-2.24-3.88-5.81-5.65-8.64a27.37,27.37,0,0,0-12.71-11.1c-10.56-4.43-22.66-2.43-33.47-.07-2.59.56-5.25,1.45-7.88,1.8-4.7.62-9.3-2.72-13.44-4.72l-23.74-11.48-10.55-5.1c-3.77-1.82-9-3.35-12.31-6-2.23-1.78-2-5.29-3-8a28.15,28.15,0,0,0-4.77-8.27,26.47,26.47,0,0,0-16.88-9.29,27.68,27.68,0,0,0-9.42.32c-3.36.69-7.7,3.92-11,3.26-2.68-.54-4.49-3.63-6.52-5.35a32.46,32.46,0,0,0-5.81-3.83c-3.62-1.93-8.13-3.27-11.27-6C13.72,59.89,35.14,46.5,39.72,43.85c30.91-18,66.27-24.29,101.11-29.79,5.7-.9,3.28-9.57-2.39-8.68C105.08,10.65,72.15,17,41.83,32.46c-11.29,5.77-25.28,13.85-30,26.43C8,69.2,16.58,74.73,24.66,78.62a57.47,57.47,0,0,1,6.21,3.27c2.54,1.63,4.29,4,6.58,5.94,6.77,5.69,12.34,1.78,19.56-.22a18,18,0,0,1,20,7.75c3.67,5.85,1.82,12.57,8.6,16.24,16.26,8.79,33.47,16.18,50.12,24.23,3.5,1.69,7.24,4,11.18,4.41,3.33.34,6.68-.71,9.9-1.45,6.16-1.42,12.38-2.79,18.72-3,6.81-.22,14,.92,18.74,6.2,5.3,5.86,6.8,13.53,14.65,17,8.79,3.89,19.8,4.33,29.21,6l32.35,5.71c3.34.59,7.74-3.15,5.08-6.61L247.93,128c-7.94-10.35-15.41-22.76-25.59-31.09-9-7.34-21.85-9.59-29.87-18-3.66-3.84-7.39-18.1,1.11-19.08,3.94-.45,5.84-4.55,3.18-7.68L168.86,19.3c-3.86-4.54-7.61-9.82-13-12.67s-11.55-2.14-17.42-1.25C132.73,6.25,135.15,14.93,140.83,14.06Z"/><path class="cls-1" d="M144.56,138.22c6,10.81,14.07,20.75,25.91,25.29,13.35,5.12,25.39-.92,37.81-5.73,5.34-2.07,3-10.78-2.39-8.68-10,3.87-20.63,10-31.52,6.27-10.28-3.49-17-12.58-22-21.7-2.81-5.07-10.58-.53-7.77,4.54Z"/><path class="cls-1" d="M42.09,87.27c1.74,9.2,5,17.42,14.07,21.48,9.41,4.22,19.6,2.31,29.28.16,5.65-1.26,3.26-9.94-2.39-8.68-7.07,1.58-14.79,3.45-21.87.89-7.4-2.68-9.08-9.22-10.4-16.24C49.7,79.2,41,81.6,42.09,87.27Z"/><path class="cls-1" d="M189.65,54.92c.6,8,1.4,16,5.5,23.09,4.39,7.6,10.83,14.33,16.3,21.15,3.62,4.52,10-1.89,6.36-6.36-4.68-5.83-9.9-11.53-14-17.81-3.95-6.11-4.67-13-5.21-20.07-.43-5.74-9.43-5.79-9,0Z"/><path class="cls-1" d="M146.45,68.18c6.27-6.43,8-17.1,1.42-24-7-7.38-21.87-7.16-28.7.37-5.84,6.44-5.08,17.49.47,23.85,7.13,8.17,19.32,6.28,26.81-.18,4.39-3.79-2-10.13-6.36-6.36-3.68,3.18-10,4.63-13.7.6-2.56-2.83-3.25-8.48-.81-11.59,3-3.86,12.14-4.14,15.54-.74s2,8.64-1,11.73C136,66,142.39,72.34,146.45,68.18Z"/><path class="cls-1" d="M11.42,67.51c2.89,15,2.95,30.33,2.81,45.59,0,5.19-.35,10.08,4.17,13.51,4.81,3.65,10.63,4.84,14.42,10,3.1,4.23,4,10.21.85,14.69-1.87,2.67-4.83,3.07-7.43,4.71a11.21,11.21,0,0,0-4.69,6c-1.8,5.63-.72,12.4-.66,18.24.06,6.16-.77,13.12,1.17,19.09,2.69,8.3,10.3,9.26,17.64,11.26,5.74,1.56,11.2,4.29,16.69,6.56,7,2.9,14,5.78,21.07,8.6a869.83,869.83,0,0,0,84.13,29.16Q211.19,269,260.82,283a4.55,4.55,0,0,0,5.54-3.14l7.58-33.73a4.63,4.63,0,0,0-2.07-5.08c-6.64-3.87-13.38-9.33-15.47-17.09-1.59-5.88.54-13.74,6.42-16.55,2.64-1.26,5.67-.7,8.34-1.88,3.25-1.43,4.72-4.16,5.08-7.61,1-9.24.35-18.88.5-28.17.09-5.79-8.91-5.8-9,0L267.48,186c0,2.86-.23,5.75-.14,8.61s.57,2.63-2.18,3a20.25,20.25,0,0,0-16,12.12c-7.38,16.16,4.7,31.2,18.19,39.07l-2.07-5.08-7.58,33.73,5.54-3.14c-56-15.87-112.73-30.16-167.2-51-13.08-5-26-10.27-39-15.62-5.26-2.18-10.46-4.71-16-6.11-2.85-.72-7.28-.88-9.39-3.16-3-3.19-1.67-10.43-1.71-14.43l-.1-9.52c0-3.7-1.39-9.43,2.34-11.49,4.11-2.27,7.55-4,9.92-8.31a21.44,21.44,0,0,0,2-15c-1.32-5.58-5-10.4-9.37-13.94a39.91,39.91,0,0,0-8-4.83c-4-1.92-3.54-3.58-3.5-7.86.15-16.09-.08-32.13-3.13-48-1.09-5.68-9.77-3.28-8.68,2.39Z"/><path class="cls-1" d="M267,198.15c-6.63,14.12-5.69,33.22-1.72,48,1.5,5.59,10.19,3.22,8.68-2.39-3.28-12.2-4.72-29.28.81-41,2.45-5.21-5.31-9.79-7.77-4.54Z"/><path class="cls-1" d="M94.82,168c-4.26-3.87-9-7.88-15.11-8.06-5.74-.17-11.16,2.76-15.27,6.57-9.06,8.4-11.35,22-2.43,31.33,8.46,8.89,22.79,8,31.9.64,9.82-8,9.6-21.74.91-30.49-4.09-4.12-10.45,2.25-6.36,6.36,5.21,5.24,5.42,12.93-.68,17.58-5.57,4.24-14.35,5-19.4-.46-5.27-5.67-3.22-13,1.88-18.05,2.38-2.34,5.92-4.81,9.46-4.48s6.33,3.23,8.74,5.42C92.73,178.21,99.12,171.86,94.82,168Z"/><path class="cls-1" d="M215.48,204.29c4.15-7.63,2.95-17.44-3.82-23.22-7.33-6.26-17.78-4.26-23.77,2.78-6.25,7.34-7.14,18.28.48,25,8.65,7.64,21,4.39,27.11-4.57,3.27-4.8-4.53-9.31-7.77-4.54-3.36,4.93-10.7,6.33-14.55,1.08-2.95-4-.55-9.53,2.87-12.47,7.78-6.69,15.81,3.8,11.68,11.39C204.94,204.84,212.71,209.38,215.48,204.29Z"/></svg>