<svg id="Layer_1" data-name="Layer 1" xmlns="http://www.w3.org/2000/svg" viewBox="0 0 288 288"><defs><style>.cls-1{fill:#12387a;}</style></defs><title>icons</title><path class="cls-1" d="M203.39,200.52c-3,20-28,24.34-41.67,34.8-7.6,5.82-12.9,14.32-21,19.51-8.5,5.46-19.34,7-29.27,6.78-9.42-.18-19.32-2.83-24.78-11.11-4.58-6.94-5.45-16-4.19-24,3.16-20.14,18.21-36.14,25-55,2.78-7.73,5.84-18.19,2.75-26.21a141,141,0,0,0-9-19l-.7,5.45c4-4.94,13.4-12.55,10.36-19.74-1.4-3.3-4.63-4.91-7.64-6.47-2.34-1.21-4.7-2.4-7.06-3.6-2-1-4.86-1.86-6.27-3.64l1.32,3.18c0-.27,4.35-3.12,4.59-3.3l4.79-3.54,8.79-6.5c3.91-2.89,11-6.21,11.58-11.68s-5.45-10.52-9-13.91a95.09,95.09,0,0,0-7.91-6.78c-1.27-1-6.63-3.69-7-5.28l-.45,3.47c1.49-3.27,6.57-5.55,9.56-7.33,3.63-2.15,7.38-4.08,11-6.17,2.76-1.57,6.93-5.63,10-3.92,2.67,1.49,4.07,3.73,7.3,4.35,5.66,1.08,8.09-7.6,2.39-8.68-2.56-.49-4.29-3.2-6.61-4.4a10.5,10.5,0,0,0-8.79-.15c-3.4,1.3-6.41,3.66-9.57,5.44-2.94,1.66-5.93,3.22-8.85,4.9-4.68,2.7-14.53,7.34-14.86,13.68-.17,3.26,2.25,5.46,4.65,7.17a117.07,117.07,0,0,1,9.49,7.13,82.58,82.58,0,0,1,8,8Q111.94,77,112.07,75l-2.38,1.77-5.59,4.14L92.93,89.2c-2.92,2.16-6.48,4.13-8.83,6.91-5.75,6.8,2.41,10.92,7.59,13.56,1.6.81,10.35,4.1,10.56,5.75.06.48-3.18,3.92-3.58,4.42q-2.24,2.74-4.46,5.5a4.69,4.69,0,0,0-.7,5.45c3.27,5.72,6.63,12,8.62,18.31.76,2.4,0,7.73-.87,11.62a74.48,74.48,0,0,1-6.12,16.92C86,196.24,71.77,214,73.11,235.84c.53,8.73,3.4,17.37,9.44,23.85,6.66,7.14,16.28,10.09,25.78,10.78,10.17.74,21.16-.63,30.58-4.6,10-4.22,16.23-12.15,23.8-19.52,15.45-15.05,45.57-18.25,49.36-43.44.85-5.67-7.82-8.11-8.68-2.39Z"/><path class="cls-1" d="M128.1,26.06c-31.36-12.23-71.34-13.89-94.26,15a48.72,48.72,0,0,0-9,43.9c4.65,16.68,16.71,30.43,29.72,41.34,14.81,12.41,31.9,21.55,50,28.09,5.46,2,7.81-6.72,2.39-8.68C79.93,136,50.22,118.22,37,91.55,30.26,78.06,30.12,62.8,38.43,50c7.38-11.35,19.66-19,32.72-22,18.32-4.2,37.38,0,54.55,6.71,5.4,2.11,7.74-6.59,2.39-8.68Z"/><path class="cls-1" d="M122.89,33.65c4.1,1.76,7.61,4.51,11.57,6.39,2.47,1.17,0,.5,1.07-.57a15.09,15.09,0,0,0-1.63,2.45A61.54,61.54,0,0,0,130.43,48c-1.65,3.35-4.1,7.66-3.68,11.51.45,4.05,3.93,5.87,7.09,7.8,4.11,2.51,8.55,4.79,12.44,7.64,4.61,3.38.61,7-2,10.36-2.09,2.69-3.84,5.76-2.55,9.23,1.45,3.89,6.51,6.65,9.58,9.15,4.45,3.63,10.86-2.7,6.36-6.36-1.72-1.4-4.21-2.82-5.58-4.55-.35-.44-1.29-.76-1.31-1.27s2.05-2.59,2.52-3.18c2.25-2.88,4.37-6.05,4.49-9.83.29-8.95-9.67-13-16.06-16.94-1.08-.66-5.42-2.49-5.78-3.59-.41-1.25,2.07-5,2.68-6.21,1.81-3.53,5.34-7.07,5.79-11.08.86-7.66-11.43-12.42-17-14.8-5.27-2.26-9.86,5.49-4.54,7.77Z"/><path class="cls-1" d="M172.88,135.65c2.31,2.72-2.67,5.28-4.58,6.95a69.55,69.55,0,0,0-6.82,6.82A76.6,76.6,0,0,0,151,165a4.58,4.58,0,0,0,2.69,6.61l10.4,3.63,5.2,1.81c.81.28,4.37,1.07,4.93,1.81,1.81,2.34-2.61,9-3.63,11.17l-4.92,10.64c-1.41,3,.24,6.72,3.89,6.77,25.76.34,53.9.1,78-10.33,18.54-8,30.3-27.35,32.78-46.93,2.8-22-7.54-41.73-25.19-54.6-18.57-13.55-43.35-18-65.88-18.87a114.88,114.88,0,0,0-20.19.93c-4.44.62-6.53,2.21-8.93,5.93-4.55,7.07-6.36,15.85-11.28,22.65a4.52,4.52,0,0,0,.7,5.45c8,7.79,15.94,15.61,23.37,23.95,3.86,4.34,10.21-2,6.36-6.36-7.42-8.34-15.38-16.16-23.37-23.95l.7,5.45c3.71-5.12,5.65-11.72,8.43-17.37,1.12-2.27,2.25-5.17,4.12-6.94,0,0-2,.09.82.08,1,0,2.23-.29,3.27-.4,3.14-.32,6.29-.47,9.44-.51,20.1-.26,42.68,3,60.43,12.94,17.14,9.63,29.5,26.09,28.66,46.35-.71,17-10,34.6-25.3,42.76-10.79,5.75-24.2,7.89-36.21,9.25-13.5,1.53-27.12,1.69-40.69,1.51l3.89,6.77c2.6-5.62,5.23-11.22,7.79-16.85,1.81-4,3.65-8.31,1.8-12.64-1.74-4.06-5.76-5.39-9.62-6.74-5.77-2-11.55-4-17.33-6l2.69,6.61a68.14,68.14,0,0,1,17.13-21.64c2.78-2.32,6-4.63,6.9-8.36,1-4-1.05-7.34-3.55-10.28C175.49,124.86,169.15,131.25,172.88,135.65Z"/><path class="cls-1" d="M103.6,90.33c17.26,3.46,32.83,11.57,48.77,18.69,5.24,2.34,9.83-5.41,4.54-7.77C140.29,93.83,124,85.26,106,81.65c-5.66-1.14-8.08,7.54-2.39,8.68Z"/><path class="cls-1" d="M169.73,144.44c-6.2-4.84-12.66-9.78-20.72-10.7a19.29,19.29,0,0,0-18.47,8.09c-4.6,6.51-6.77,15.15-9.27,22.62-2.57,7.67-6.91,17-6,25.27,1.55,14.12,18,20.77,30.31,16.69,14.46-4.78,23.93-19,28.79-32.71,1.94-5.47-6.76-7.82-8.68-2.39-3.49,9.87-9.92,20.23-19.52,25.14-8,4.11-22.84,1.92-22-9.82.43-6,3.34-12.38,5.21-18,1.79-5.41,3.55-10.88,5.71-16.15s5.28-10,11.6-9.87,11.87,4.48,16.68,8.24c4.51,3.53,10.93-2.8,6.36-6.36Z"/></svg>