<svg id="Layer_1" data-name="Layer 1" xmlns="http://www.w3.org/2000/svg" viewBox="0 0 288 288"><defs><style>.cls-1{fill:#12387a;}</style></defs><title>icons</title><path class="cls-1" d="M205.5,168.33c4.1-15.56,5.12-31.68,8.23-47.43,2-10.28,3.24-20.86-2.46-30.34-6.41-10.66-17.84-11.35-28.92-8.76a287.38,287.38,0,0,0-42.09,13C114,105.42,89.43,121.27,71.78,143.7,56.1,163.63,46.61,187.35,41.11,212a182.52,182.52,0,0,0-4.2,24.51c-.48,5.76-1.61,17.92,6.51,18.92,3.38.42,6-1.75,8.69-3.5,3.69-2.4,7.41-4.74,11.25-6.89a78.25,78.25,0,0,1,25.72-9.5L83.54,230c-1.71,8.33-6.63,15.22-10,22.9-2.23,5.06-4.16,12,2.69,14.14,4.16,1.31,9,.35,13.2-.37a159.22,159.22,0,0,0,16.16-3.87c29.41-8.33,55.63-23.07,75.17-47a129.73,129.73,0,0,0,24.76-47.42c1.55-5.59-7.14-8-8.68-2.39-7.57,27.4-25.22,51.45-48.42,67.77A131.78,131.78,0,0,1,110.17,252c-8.18,2.46-16.53,5.09-25,6.23-1.49.2-4.71-.34-6,.25-.14.06,1.11-1.13-.27-.11,0,0,.87,1.69,1.43,1.63.31,0,2-4.88,2.35-5.52,3.57-7.27,7.92-14.12,9.57-22.15.74-3.58-2.08-6.1-5.54-5.54a79.66,79.66,0,0,0-22.44,7.53c-3.67,1.82-7.24,3.86-10.73,6-1.5.92-3,1.86-4.47,2.81s-3.91,3.39-5.62,3.22l3.18,1.32c-1.78-1.43-.94-7.25-.82-9.38A84.94,84.94,0,0,1,47,228.42c.94-5.45,2-10.88,3.27-16.27a199.89,199.89,0,0,1,8.56-27.88,134.91,134.91,0,0,1,32-48.18c16.53-15.8,37-27.29,58.39-35.12,10.35-3.79,21-6.63,31.68-9.52,8.33-2.26,18.34-4.57,23.14,4.6s1.45,19.28-.15,28.88c-2.28,13.68-3.53,27.55-7.07,41C195.34,171.54,204,173.93,205.5,168.33Z"/><path class="cls-1" d="M87.84,134.32c-7-15.21,3.83-34.39,16.19-43.37C120.41,79,139.18,69.55,157.33,60.7l-6.77-3.89a152.81,152.81,0,0,1,.61,20c-.18,4.73-.11,11.48-4.51,14.47-4.76,3.24-.26,11,4.54,7.77,5.58-3.8,7.71-9.43,8.52-16,1.07-8.65.65-17.61-.15-26.26a4.57,4.57,0,0,0-6.77-3.89Q136.28,61,120.37,70.19c-9.47,5.51-20,10.91-27.78,18.75-12.67,12.73-20.43,32.77-12.53,49.93,2.42,5.25,10.18.69,7.77-4.54Z"/><path class="cls-1" d="M173.67,223.73c15-3.72,28.06-12.51,39.07-23.2,10.63-10.31,20.7-23.42,17.69-39.08a4.54,4.54,0,0,0-5.54-3.14c-8.1,2.5-16.65,2.91-24.94,4.48-5.68,1.07-3.28,9.75,2.39,8.68,8.29-1.57,16.85-2,24.94-4.48l-5.54-3.14c2.5,13-9,24.53-17.74,32.56-9.39,8.66-20.25,15.56-32.74,18.64-5.62,1.39-3.24,10.07,2.39,8.68Z"/><path class="cls-1" d="M106.23,211.34c7.91-13.17,2.45-30.93-13.67-34C73.69,173.82,61.26,199.7,72,214.14c9.16,12.31,26.35,8.68,34.22-2.8,3.28-4.79-4.51-9.29-7.77-4.54S89,214.57,83.3,212s-6.57-8.41-5.55-13.89c1-5.18,3.6-11.19,9.45-12.09,4.3-.66,8.91,1.58,11.52,5,3.79,4.88,2.72,10.81-.27,15.77S103.24,216.3,106.23,211.34Z"/><path class="cls-1" d="M98.46,148.44a87.77,87.77,0,0,1,40.89,75.74c-.13,5.79,8.87,5.79,9,0A97,97,0,0,0,103,140.67c-4.93-3.07-9.46,4.71-4.54,7.77Z"/><path class="cls-1" d="M147.94,137.64q13.61-4.67,27.29-9.14l-5.54-3.14c2.17,10.21-2.39,20.45-10.57,26.71-4.54,3.47-.06,11.29,4.54,7.77,11.56-8.86,17.79-22.34,14.7-36.87a4.54,4.54,0,0,0-5.54-3.14q-13.68,4.46-27.29,9.14c-5.45,1.87-3.11,10.57,2.39,8.68Z"/><path class="cls-1" d="M191.68,84.56c.57-26.32,24.8-41.69,47.76-47.56l-5.54-3.14c-.14-.79.15-2-.14-1.33a9.44,9.44,0,0,0-.32,2c-.35,2.11-.72,4.23-1.1,6.34q-1.7,9.61-3.58,19.18c-1.28,6.54-2.62,13.08-4.14,19.57-.59,2.5-1.19,5-1.91,7.46a17.87,17.87,0,0,1-1.35,3.79,4.55,4.55,0,0,0,5.08,6.61c15.25-4.1,30.68-5.47,46.41-6L269,84.69c-6.19,9.41-12.82,18.78-22.2,25.28-11.15,7.73-23.68,9.82-37,10.48-5.77.28-5.8,9.28,0,9,14.8-.73,29.09-3.11,41.52-11.7C262,110.33,269.65,100,276.74,89.23c1.86-2.83-.58-6.88-3.89-6.77-16.51.53-32.8,2-48.8,6.3l5.08,6.61c2.24-3.82,3.06-8.73,4.07-13,1.65-7,3.07-14,4.45-21q1.91-9.8,3.64-19.64c.55-3.11,1.87-7.1,1.29-10.27-.45-2.42-3.34-3.7-5.54-3.14-27,6.9-53.72,25.79-54.37,56.23-.12,5.79,8.88,5.79,9,0Z"/><path class="cls-1" d="M87.74,204.86c5.79,0,5.8-9,0-9s-5.8,9,0,9Z"/></svg>