<svg id="Layer_1" data-name="Layer 1" xmlns="http://www.w3.org/2000/svg" viewBox="0 0 288 288"><defs><style>.cls-1{fill:#12387a;}</style></defs><title>icons</title><path class="cls-1" d="M235.24,156.09c3.65-7.4,7.67-13.12,5.77-21.72-1.71-7.73-6.8-13.94-11.76-19.84a60.84,60.84,0,0,1-6.93-9.36c-2-3.59-2-7.54-3.69-11.17a9,9,0,0,0-6.33-5.42c-1.83-.43-3.83.09-5.28-1.37s-1.16-3-.53-4.64c1.6-4.11-3.47-6.45-6.61-5.08-2.21,1-4.46-4.5-4.85-5.85-.8-2.76-.83-5.74-1.43-8.55-1.09-5.05-3.51-9.8-8.45-11.95-6.74-2.93-13.57,1.75-20.2-.53-5.76-2-9.76-7.76-13.74-12C137.62,23.94,111,22.78,93.07,28.7,76.23,34.28,59.3,61.13,76.31,75.52c2.35,2,5.8,3,7.81,5.28s2,5.33,2,8.15c-.06,5.68-1,11.54.72,17.07,1.7,5.38,5.61,9,9.73,12.6,1.83,1.6,3.89,3.21,5.19,5.29,1.77,2.82,1.29,5.91,1,9.08-.66,6.3,0,12.42,5.75,16.16,4.47,2.9,12.69,2.72,13,9.18.38,6.84-.44,12.67,5.81,17.16,2.71,1.95,18,6.11,14.44,10.79-2,2.68.71,7,3.89,6.77,9.75-.67,16.66,10.81,22.2,17.32,6.72,7.9,13.45,15.78,19.92,23.88a312,312,0,0,1,19.69,27.19c4.48,7,9.11,14.3,16.27,18.91,13.15,8.46,27.91-1,31.23-14.88,1.61-6.74,1.33-13.8.71-20.64-.69-7.67-1.4-15.38-2.4-23a201.58,201.58,0,0,0-7.29-34.14,172.74,172.74,0,0,0-6-16.24c-2.2-5.16-6.43-10.74-4.22-16.41,2.1-5.4-6.6-7.74-8.68-2.39-3.52,9,2.79,17.47,6.05,25.63a172.48,172.48,0,0,1,8.28,27.24,242.75,242.75,0,0,1,5.76,47.45c.09,5.88-.27,12.83-4.29,17.53-5.71,6.68-13.22,4.14-18.65-1.35-6.52-6.59-10.8-15.32-16.12-22.85-5.68-8-11.75-15.76-18-23.36-7.15-8.73-14.47-17.32-21.82-25.88-5.84-6.81-13-13.64-22.64-13l3.89,6.77c3.18-4.18,2-9.45-1-13.35-4.06-5.18-9.78-5.47-15-8.68s-2-10.59-3.74-15.76-6.47-7.55-11.28-9.3c-2-.73-4.86-1.29-6.24-3.09-1.81-2.36-.55-6.51-.32-9.17.52-6-.86-10.89-4.88-15.37-3.29-3.66-8.19-6.24-10.66-10.58-3-5.27-1.09-12.19-1.23-17.92C95,82.53,93.77,77.54,90,73.91c-4.36-4.2-10.73-5.1-11.51-12.1-1-9,6.39-19.57,14.21-23.37,8.82-4.28,20.5-4.45,30-3.23a46.45,46.45,0,0,1,14.54,4.06c5.07,2.51,8.18,6.5,12,10.54,4.37,4.63,9.49,9,16,10.09s16.64-4.63,19.24,3.64c1.94,6.15,1.28,12.17,5.46,17.56,3.74,4.83,8.85,6.61,14.51,4.15l-6.61-5.08a12.91,12.91,0,0,0,5.66,15.59A12.65,12.65,0,0,0,208,97.14c1.92.28,1.84-.25,2.73,1.59.78,1.62.77,3.91,1.37,5.64a33.27,33.27,0,0,0,2,4.64c3.66,6.93,9.69,12.1,14,18.58,2.15,3.25,4.21,7,4.43,11,.28,5-3,8.7-5.12,12.92C224.91,156.72,232.67,161.29,235.24,156.09Z"/><path class="cls-1" d="M233.49,276.05c-18.55-71.76-60.12-134.16-101-194.9l-5.08,6.61c8.73,2.91,15.09,9.75,21.18,16.35s12.19,13.62,18,20.69A453.67,453.67,0,0,1,198.41,169a461,461,0,0,1,47.1,98.39c1.85,5.45,10.55,3.11,8.68-2.39a471.31,471.31,0,0,0-87.87-154.46c-10.23-12-21.06-26.31-36.53-31.47-3.63-1.21-7.25,3.39-5.08,6.61,40.46,60.09,81.76,121.75,100.11,192.75,1.45,5.6,10.13,3.23,8.68-2.39Z"/><path class="cls-1" d="M256.49,256.93c2.5-16.48,5.09-32.95,7.5-49.44,1.11-7.57,2.09-15.19.82-22.81s-5.73-14.8-6.3-22.64c-1-13.24,9.7-24.64,6.24-38.22-1.58-6.23-5.94-10.89-9.78-15.83-2.69-3.45-7.94-11.85-2.82-15.58,2.49-1.81,3.32-6.15,0-7.77-6.94-3.38-9.92-11.26-13.3-17.74Q233,55.64,227.09,44.36c-3.08-5.9-6.41-11-12.43-14.26-6.21-3.34-12.71-4.58-17.22-10.42s-8.75-8-15.91-8.91C172.38,9.6,163.21,8.55,154,7.45c-8.37-1-16.88-2.57-25.31-2.91-5.92-.24-12.35,1.11-16,6.17-4.15,5.76-9.21,23.48,2.53,24,5.79.25,5.78-8.75,0-9,2.62.11,1.63,2.46,1.78-.74a14.89,14.89,0,0,1,.45-2.74c.48-2,1.13-4.67,2.53-6.29,4.3-5,15.72-1.68,21.16-1l27.7,3.34c4.57.55,9.32.79,13.83,1.72s6.18,3.46,9,6.9c4.37,5.4,10.46,7.27,16.54,10.09,7.52,3.49,10.08,10,13.73,17,4,7.74,8,15.5,12.11,23.21,3.27,6.17,7.09,12.14,13.56,15.29V84.65c-11.15,8.12-5.41,21.68,1.57,30.43,4.95,6.19,8.49,11.42,6.73,19.67-1.45,6.8-4.67,13.09-5.87,20-1.28,7.31.28,13.88,2.71,20.77,3,8.52,4.21,16.2,3.16,25.23-2.09,18-5.38,35.91-8.1,53.82-.86,5.67,7.81,8.11,8.68,2.39Z"/><path class="cls-1" d="M225.09,270.79c-15.58-10.33-31.26-20.68-45.12-33.29-13.59-12.37-24.68-27-36-41.46l-36.59-46.77-18.3-23.38c-3.34-4.27-6.78-8.48-10-12.82-2.64-3.53-5.69-7.65-4.48-12.27l-5.54,3.14c6.47,2.67,12.52,7.32,18.21,11.31s11.91,8.21,16.77,13.4c4,4.23,10.32-2.14,6.36-6.36-5.36-5.72-12.21-10.32-18.59-14.8S78.78,98.27,71.48,95.25c-2.23-.92-5,1-5.54,3.14-1.72,6.55.65,12.53,4.43,17.91,4.43,6.3,9.47,12.22,14.21,18.28l31.71,40.53c19.49,24.91,37.79,52.22,62,72.87,13.24,11.3,27.76,21,42.25,30.57,4.84,3.21,9.35-4.58,4.54-7.77Z"/><path class="cls-1" d="M75.14,52C66,48.63,53.22,44.18,44.55,50.89,38.76,55.37,39,60.64,40.1,67.18,41,72.86,35,77.06,33.92,82.5c-1.13,5.71,2.42,9.65,6.89,12.49,2.79,1.77,4.33,2.57,3.34,6.2-.89,3.25-2.17,6.21-2.29,9.63-.41,11.91,9.47,20.6,16.16,29.24C66,150.33,65.71,163,71.44,174.15c2.83,5.53,7.22,9.19,12.58,12.15,5.54,3.06,9.95,5.55,10.18,12.48.37,11-2.76,22.78,9.83,28,2.55,1.05,5.92,1.5,7.4,4.08,1.32,2.29,1.23,5.58,1.66,8.11.85,4.95,3.18,9.76,8.28,11.44,3.33,1.1,6.81.48,10.15-.22,4.67-1,7.74-.53,12.07,1.53,8.07,3.83,16.24,7.39,24.64,10.43a250.81,250.81,0,0,0,52.65,12.62c5.72.76,5.67-8.25,0-9a239.66,239.66,0,0,1-43.34-9.91c-7.16-2.35-14.22-5-21.12-8.06-5.69-2.51-11.58-6.51-17.87-7.25-4.31-.51-13.72,3.89-16-.59-2.13-4.15-1-9.38-3.34-13.63-2.85-5.11-7.63-5.67-12.4-8.06-5-2.53-4.13-8.13-3.84-12.95.3-5,.61-10.17-1.34-14.92-2-4.92-6.13-8-10.65-10.52C85.86,177,81.49,174.56,78.91,169c-2.39-5.12-3.26-10.85-4.74-16.26C71.07,141.52,64.34,134,57.3,125.11c-2.83-3.59-6-7.76-6.43-12.46-.64-6.3,4.5-11.63,2-18a12.8,12.8,0,0,0-5.09-5.86c-1.41-1-4.83-2.11-5.12-4-.36-2.3,2.87-5.59,3.94-7.43a17.37,17.37,0,0,0,2.71-8c.09-3.07-2.14-6.83-.78-9.71s5.07-3.39,7.78-3.15c5.54.48,11.22,2.34,16.42,4.26,5.44,2,7.78-6.68,2.39-8.68Z"/><path class="cls-1" d="M34.77,80.26c-5.83,2.5-11.59,7.12-13.52,13.42s.75,11.22,4,16.41c2.69,4.35,1.45,6,.52,10.65a15.13,15.13,0,0,0,1.08,9,91.89,91.89,0,0,0,9.79,18.57c4,5.53,8.9,9.2,14.32,13.19,6.62,4.87,7.95,11.89,11.9,18.63,7,11.85,18.74,19.74,30,27.11,4.86,3.18,9.37-4.61,4.54-7.77-9.94-6.51-20.6-13.39-26.76-23.88-3-5-4.37-10.82-8-15.44-3.78-4.8-9.35-7.39-13.79-11.44s-7.37-9.17-10-14.41c-1.36-2.72-3.39-5.94-4.07-8.93-.8-3.47,1.49-6.54,1.58-10,.14-5.35-3.28-9-5.58-13.43-3.45-6.7,3-11.49,8.58-13.91,5.31-2.28.73-10-4.54-7.77Z"/><path class="cls-1" d="M64.39,48.66c-.82-5.14-1.73-11.5.63-16.38,2.53-5.23,9.28-5.37,13.5-8.66,2.4-1.87,3.56-5.33,6.67-5.88a28.41,28.41,0,0,1,8,.25c5.27.68,10.35,2.45,12.94,7.38,2.69,5.13,10.46.59,7.77-4.54-3.52-6.71-10.28-10.16-17.53-11.4C88.86,8.14,80,7.28,75,14c-2.71,3.7-6.29,4.29-10.23,6.31a17.57,17.57,0,0,0-7.53,7.4c-3.76,7.11-2.76,15.7-1.54,23.32.91,5.7,9.59,3.28,8.68-2.39Z"/></svg>