<svg id="Layer_1" data-name="Layer 1" xmlns="http://www.w3.org/2000/svg" viewBox="0 0 288 288"><defs><style>.cls-1{fill:#12387a;}</style></defs><title>icons</title><path class="cls-1" d="M193.24,90.4c-16-6.12-32-12.43-48.15-18.13-7.75-2.73-15.54-5.33-23.41-7.69q-6.37-1.92-12.8-3.61-2.77-.73-5.54-1.41c-.7-.17-5.51-1-5.6-1.15l.45,3.47c.48-3.37,4.71-7.62,6.7-10.33a131.26,131.26,0,0,1,8.51-10.45q4.19-4.64,8.83-8.84,2.13-1.93,4.33-3.78c3.21-2.68,4.82-2.71,8.8-1.65,13.44,3.55,26.87,7.12,40.22,11,9.66,2.82,19.28,5.8,28.76,9.16,8.31,2.94,17.07,6.14,24.13,11.07.92.64.24.41.4.36-.23.06-.18-1.33-.17-1.33q.21-1.1-.51.36l-1.36,1.76c-3.17,4-6.63,7.72-10.12,11.42-7.23,7.65-14.55,15.16-20.56,23.84-1.57,2.26,0,6.11,2.69,6.61,9.9,1.82,19.74.83,29.67-.28,5.69-.64,5.76-9.64,0-9-9,1-18.27,2.25-27.27.6L203.91,99c8.16-11.76,19.15-21.11,28.22-32.12,4.62-5.61,8.1-10.77,1.56-16.15-5.23-4.31-12.13-6.78-18.35-9.22-7.94-3.12-16-5.8-24.17-8.36-18.27-5.74-36.77-10.75-55.31-15.51-6.93-1.78-10.32,0-15.66,4.47a131.66,131.66,0,0,0-14.68,14.34A165.5,165.5,0,0,0,94.35,50.88c-2.92,4.2-8.07,10.39-2.23,14.63,2.89,2.09,7.31,2.34,10.68,3.18q6.46,1.62,12.85,3.49c8.5,2.47,16.91,5.22,25.26,8.14,16.79,5.87,33.33,12.41,49.94,18.76,5.41,2.07,7.76-6.63,2.39-8.68Z"/><path class="cls-1" d="M228.62,57.13c1.32,8,3.13,15.92,4,24A72.79,72.79,0,0,1,231,105.66c-3.91,17.65-8.6,35.16-13,52.69-4.44,17.74-9,35.47-13.07,53.29-2,8.73-4,17.48-6.36,26.12-1.1,4-2.29,8-3.61,11.91-1.49,4.45-2.44,9.24-6.9,11.5-7.67,3.88-15.87,6.68-23.57,10.53-3.23,1.61-6.64,4.42-10.09,5.43s-9.36-3.32-12.46-4.89c-15.67-7.93-31.34-15.89-47.32-23.17-7.74-3.53-15.56-6.91-23.47-10.05q-5.57-2.21-11.22-4.25c-.87-.31-6-1.59-6-2.1.13,1,1.66-1.57,1.41-1.17.68-1.1.64-3.2.92-4.52,3.53-16.86,8.17-33.46,13.13-49.95C80.55,139.9,93.31,103.1,99.14,64.63c.86-5.67-7.81-8.11-8.68-2.39-5.64,37.24-17.78,72.93-28.69,108.85-5.45,17.95-10.59,36-14.39,54.38-.71,3.43-2.41,8-1.06,11.47,1.42,3.62,5.33,4.41,8.65,5.57,9,3.13,17.81,6.67,26.52,10.47,17.56,7.66,34.68,16.27,51.77,24.92,6.31,3.19,15.35,10.21,22.85,8.19,3.43-.92,6.5-3.28,9.6-4.93,4.41-2.34,8.95-4.43,13.51-6.44,7.32-3.22,17-5.34,20.79-13.05,4-8.09,6.22-17.46,8.48-26.17,5-19.13,9.11-38.48,13.91-57.65,5.43-21.7,11.08-43.38,16.21-65.15,2.28-9.69,4.12-19,3.28-29-.82-9.75-3-19.31-4.6-28.95-.94-5.7-9.62-3.28-8.68,2.39Z"/><path class="cls-1" d="M190,105.5c-9.85,54.83-20.68,109.05-37.26,162.32-1.72,5.54,7,7.91,8.68,2.39,16.57-53.26,27.41-107.48,37.26-162.32,1-5.66-7.65-8.09-8.68-2.39Z"/><path class="cls-1" d="M216.27,78.26a98.52,98.52,0,0,1,15.22,20.52c2.83,5.06,10.6.52,7.77-4.54A107.86,107.86,0,0,0,222.63,71.9c-4-4.17-10.39,2.2-6.36,6.36Z"/><path class="cls-1" d="M237.15,57.28c.67-5.39,2.61-12.93,1.23-18.73-1-4.37-5.68-5.45-9.4-7-6-2.57-12.15-4.78-18.36-6.8-25.27-8.23-50.62-17.09-76.54-23a4.58,4.58,0,0,0-5.54,3.14l-4,14.86c-1.52,5.6,7.16,8,8.68,2.39l4-14.86-5.54,3.14c23,5.29,45.22,13.35,67.78,20.29,5.27,1.62,10.53,3.27,15.72,5.11,2.9,1,5.78,2.1,8.62,3.28.81.33,6.64,3.16,5.85,1.66,1,1.86-.3,6.81-.52,8.83-.29,2.6-.67,5.18-1,7.77-.71,5.73,8.3,5.68,9,0Z"/><path class="cls-1" d="M141.61,251.23a165.14,165.14,0,0,1-61.47-29.8L75.76,229l57.57,8c4.9.68,8-5.21,3.47-8.22C127.58,222.54,118.61,216,110,209c-7.63-6.16-17.37-12.68-21.8-21.67L83.09,194c11.31,2.3,21.9,6.7,32.47,11.24l33.81,14.51c5.27,2.26,9.86-5.49,4.54-7.77L118.34,196.7c-10.69-4.58-21.42-9.07-32.86-11.39a4.56,4.56,0,0,0-5.08,6.61c4.84,9.81,14.91,16.78,23.21,23.49q13.84,11.18,28.65,21.08l3.47-8.22-57.57-8c-3.77-.52-8.42,4.37-4.38,7.52a175.67,175.67,0,0,0,65.44,32.11c5.62,1.41,8-7.27,2.39-8.68Z"/><path class="cls-1" d="M89.14,176.56c23.17,5.7,45.39,14.4,67.31,23.72,5.27,2.24,9.86-5.51,4.54-7.77-22.64-9.63-45.53-18.74-69.46-24.63-5.62-1.38-8,7.29-2.39,8.68Z"/><path class="cls-1" d="M91.91,158.69c9.06,1.07,17.71,4.39,26.26,7.4,8.15,2.87,16.29,5.77,24.27,9.1,4.17,1.73,8.2,4,12.4,5.65,2.72,1,5.31,1.33,7.36-1.09s1.87-6.76,2.25-9.93l1.82-15.27c.68-5.74-8.32-5.69-9,0L156,165.05c-.18,1.53,0,8.18-.86,9l4.38-1.16c-5.52-1.22-11.16-4.94-16.42-7.08-5.72-2.33-11.51-4.46-17.32-6.54-11.1-4-22.12-8.2-33.89-9.58-5.74-.68-5.69,8.33,0,9Z"/><path class="cls-1" d="M99.25,125.84a178.76,178.76,0,0,1,35.93,4.41q8.46,1.94,16.72,4.69,4.34,1.44,8.6,3.11,1.7.66,3.39,1.36t3.12,1.35q1.68.93,0-.45l.7-5.45-.34.41,5.45-.7-.39-.19c-5.2-2.49-9.77,5.27-4.54,7.77l.39.19c1.67.8,4.14.9,5.45-.7l.34-.41a4.68,4.68,0,0,0,.7-5.45c-2.44-4.16-10.26-5.8-14.5-7.38a181.69,181.69,0,0,0-20.08-6.19,190.19,190.19,0,0,0-41-5.36c-5.79-.14-5.79,8.86,0,9Z"/><path class="cls-1" d="M102.17,89.54l16.11,22c3.71,5.07,7.55,12.62,13.68,15.15,6.54,2.7,13.07-1.94,18.81-4.7l25.05-12c5.22-2.51.66-10.27-4.54-7.77l-18.79,9-8.95,4.3c-2.88,1.38-6.63,4.38-9.54,1.92-4.52-3.82-7.93-10.39-11.41-15.15L109.94,85c-3.38-4.63-11.2-.14-7.77,4.54Z"/></svg>