<svg id="Layer_1" data-name="Layer 1" xmlns="http://www.w3.org/2000/svg" viewBox="0 0 288 288"><defs><style>.cls-1{fill:#12387a;}</style></defs><title>icons</title><path class="cls-1" d="M76.33,109.25c-7.39-9.37-16.67-17.53-27.83-22-7.87-3.14-17.77-5-23.76-11.43-8.9-9.61-1.69-24,6.05-31.78C37.5,37.3,46.41,33.34,55.48,30.85c21.19-5.81,44.24-4.79,65.83-2,21.43,2.74,42.76,7.74,62.22,17.32,42.91,21.14,83.52,64.9,82.11,115.6A92.67,92.67,0,0,1,237,225.64a78.82,78.82,0,0,1-64.51,20.7c-22.73-2.9-44.94-15.09-57.6-34.5C98.73,187,99.35,155.75,87.91,129A89.91,89.91,0,0,0,77,110.16c-3.44-4.57-11.26-.09-7.77,4.54,19.94,26.44,18.58,61.15,31.85,90.53,10.69,23.64,32.13,40.49,57,47.32,24.38,6.7,51.18,3.6,72.47-10.39s36.4-37,41.8-61.92c11.8-54.36-25.25-106.18-69.56-133.68-21-13.06-44.28-20.71-68.59-24.83-23.47-4-47.94-5.8-71.52-1.68-22,3.84-48,16.62-50.78,41.64-1.23,11.18,4.18,20.65,13.85,26.07,8.45,4.73,18.43,6.17,26.6,11.38A72.58,72.58,0,0,1,70,115.62C73.55,120.16,79.88,113.75,76.33,109.25Z"/><path class="cls-1" d="M161.36,49.54a277.23,277.23,0,0,0-61.5-11.62c-20.1-1.42-42.4-.8-60.73,8.58-7.18,3.67-15,10.73-13.41,19.69,1.71,9.4,11.41,12.44,19.63,13.59C67,82.8,83.47,102,91.84,121c10.3,23.42,13.22,49.39,27.62,71.05,11.1,16.69,27,30.51,46.32,36.62,20.25,6.41,42.57,2.86,60.7-7.92a43.81,43.81,0,0,0,20.42-26.16,133.83,133.83,0,0,0,5-39c-.81-52.55-43.07-91.07-90.55-106-5.54-1.74-7.91,6.94-2.39,8.68,36.8,11.59,72.46,38.79,81.64,77.95,2.87,12.23,2.83,25,1.25,37.42-1.43,11.23-3.21,24.48-11.48,32.92-13.41,13.69-36.82,19-55.23,15.29C157.3,218.2,142,207,131,192.76c-14-18.16-18.57-40.05-25.66-61.35-6.43-19.32-16.38-37.17-32.93-49.6A55,55,0,0,0,46.75,70.94c-6.06-.83-16.63-4-10.09-11.63,6.07-7.08,18-9.61,26.78-11.16,11-2,22.31-2,33.42-1.42A263.68,263.68,0,0,1,159,58.22C164.52,59.93,166.89,51.24,161.36,49.54Z"/><path class="cls-1" d="M11.9,65.14c-4.35,10.32,1.12,24.95,6.25,34,7.46,13.2,22.68,19.61,31.42,31.91C66.8,155.36,67.83,187.18,80,213.79c13.35,29.14,39.34,52.48,70.5,60.8,23.43,6.26,46.65,2.9,66.88-10.37,25.9-17,42.68-44.46,52-73.48,1.78-5.53-6.9-7.89-8.68-2.39-13.81,42.82-50,88.06-100,79.29-30.05-5.27-55.6-25.56-69.86-52.21C77.7,190.86,76,162.06,63.62,137.15a77.76,77.76,0,0,0-12.5-18.33c-5.81-6.25-13-10.9-19.18-16.75-5-4.75-8-10.37-10.08-16.9C20.12,79.74,18.25,73,20.58,67.53c2.25-5.33-6.46-7.66-8.68-2.39Z"/><path class="cls-1" d="M161,140.26c-2.31,9.73-8.26,20.22-6.53,30.47,1.59,9.44,10.73,13,19,9.13,4.36-2,7.28-5.75,10.8-8.89,4.38-3.89,9.45-4.31,15.07-4.72,7.92-.58,15.28-2.07,20.1-9,3.76-5.36,4.46-12.56-.79-17.21-3.3-2.92-7.47-3.56-11.7-3.82a18.7,18.7,0,0,1-11.43-4.14c-10.7-8.48-20.35-32.16-36.94-28.87-8.6,1.71-9,8.67-5.06,15.2,1.54,2.54,3.72,4.66,5.25,7.19A20.92,20.92,0,0,1,161,140.26c-1.09,5.66,7.58,8.08,8.68,2.39a31.08,31.08,0,0,0-2.54-20.52c-1.66-3.25-4.53-5.79-6.27-9-.38-.71-.63-1.41-1-2.13-.17-.36-.2,1.32-.36,1.31,1.31.09,1.95-.47,3.42-.15,2.93.64,5.43,3.32,7.44,5.37,4.37,4.46,8,9.58,12.12,14.29,3.83,4.39,8.17,8.68,13.52,11.17a23.63,23.63,0,0,0,7.78,2.14c2.65.26,8.18-.55,9.57,2.5,2,4.49-5.63,8.49-8.76,9.09-6.68,1.29-13.57.42-19.94,3.28-4.11,1.85-7.12,5-10.31,8.12-2.6,2.52-8.56,7.37-10.84,2.1-1.53-3.54.55-8.92,1.55-12.29,1.52-5.1,3.35-10.08,4.57-15.26C171,137,162.31,134.62,161,140.26Z"/></svg>