<svg id="Layer_1" data-name="Layer 1" xmlns="http://www.w3.org/2000/svg" viewBox="0 0 288 288"><defs><style>.cls-1{fill:#12387a;}</style></defs><title>icons</title><path class="cls-1" d="M60.42,136.65c-8-11.61-18.09-28.39-13.3-43,4.41-13.49,21.52-17.79,34-14.7,14.63,3.62,22,18.19,28.39,30.55,8,15.59,17.32,30.41,26.23,45.51,9.55,16.19,18.63,32.64,26.63,49.66a168.15,168.15,0,0,1,9.67,24.6c1.76,6.06,5.58,16.91.48,22.3-1.69,1.79-2.84,2-4.2,1.49a26.62,26.62,0,0,1-4.41-2.2,80.08,80.08,0,0,1-11.4-9c-8.59-7.81-16.52-16.34-24.33-24.92-8.79-9.66-17.89-19-26.66-28.68a526.66,526.66,0,0,1-41.11-51.54c-3.3-4.71-11.11-.22-7.77,4.54A545.27,545.27,0,0,0,93.32,192.5c9.22,10.27,18.87,20.13,28.16,30.35,9,9.86,18.07,19.78,28.23,28.44,6.91,5.89,17,14.77,26.43,8.88,15.35-9.59,4.63-35.14-.47-47.57-8-19.52-18.17-38.2-28.78-56.41-10.18-17.49-20.93-34.58-30.27-52.54-7.27-14-16.25-28.95-32.51-33.27-15.82-4.2-36.19,1-43.93,16.52-8.92,17.94,2.23,39.47,12.47,54.3C55.91,145.93,63.72,141.43,60.42,136.65Z"/><path class="cls-1" d="M79.87,120.37a31.2,31.2,0,0,1,25.8-17.69c5.75-.4,5.79-9.4,0-9A40.24,40.24,0,0,0,72.1,115.82c-2.55,5.18,5.21,9.74,7.77,4.54Z"/><path class="cls-1" d="M96,128a9.72,9.72,0,0,1,7.38-5.63c2.39-.47,3.75-3.32,3.14-5.54A4.59,4.59,0,0,0,101,113.7a18.78,18.78,0,0,0-13.67,11.92c-.89,2.26,1,4.94,3.14,5.54,2.56.7,4.64-.87,5.54-3.14Z"/><path class="cls-1" d="M88.89,173.67a37.37,37.37,0,0,1,15.81-17.95c5-2.94.47-10.72-4.54-7.77a47.34,47.34,0,0,0-19.94,23.33c-2.19,5.36,6.51,7.69,8.68,2.39Z"/><path class="cls-1" d="M113.78,187.82a28.43,28.43,0,0,1,11.65-15.13c4.84-3.14.34-10.93-4.54-7.77a38.28,38.28,0,0,0-15.79,20.51c-1.8,5.52,6.88,7.88,8.68,2.39Z"/><path class="cls-1" d="M138.64,207.21l12.29-14.07c3.8-4.34-2.54-10.73-6.36-6.36l-12.29,14.07c-3.8,4.34,2.54,10.73,6.36,6.36Z"/><path class="cls-1" d="M47.17,81.2c-18-9.2-20.75-27.64-21.75-46l-7.68,3.18L47.39,64a4.52,4.52,0,0,0,7.07-5.45,67.49,67.49,0,0,1-5.57-17.38,45.75,45.75,0,0,1-.64-4.95,7.93,7.93,0,0,1-.07-1.44q.21-2.11-1.9,1.36c0,.75,4.75,4.6,5.5,5.44A54.2,54.2,0,0,1,64.7,70.48c.7,5.67,9.71,5.74,9,0-2-15.83-9.56-32.31-22.71-42-6.64-4.9-12.23.64-11.75,7.79a74.6,74.6,0,0,0,7.44,26.87l7.07-5.45L24.1,32c-2.73-2.37-7.91-1-7.68,3.18.61,11.12,1.36,22.45,6,32.75A44,44,0,0,0,42.62,89c5.15,2.63,9.71-5.13,4.54-7.77Z"/><path class="cls-1" d="M86.16,72.23c-1-9.58-1.77-19.2-2.9-28.76C82.41,36.3,79.88,28.31,72,26.25,57.55,22.47,59.59,46.1,60.33,54.07c.53,5.72,9.53,5.77,9,0a83,83,0,0,1-.27-13.12c.12-1.86.16-4.23.92-6,.07-.16.08-.66.22-.77-1.42,1.24,1,1.46,1.83,2.49,3.38,4.19,2.78,12.07,3.29,17.2l1.84,18.34c.57,5.71,9.58,5.77,9,0Z"/><path class="cls-1" d="M29,64.4C21.55,63.24,13,62,5.67,64A4.56,4.56,0,0,0,3,70.61c8,15.53,21,25,38.53,26.54,5.77.5,5.74-8.51,0-9-14.36-1.24-24.33-9.53-30.76-22.08L8.06,72.68c5.72-1.59,12.75-.5,18.52.41S34.7,65.29,29,64.4Z"/><path class="cls-1" d="M133.13,131.52c1.72-19.1,14.13-35.8,30.4-45.38,8.58-5.06,20.91-10.27,31-7.74,5.16,1.29,9.51,4.63,14.25,6.9a78.86,78.86,0,0,0,15.61,5.27c10.2,2.47,21.34,4.07,29.52,11.22,7.67,6.7,11.88,16.56,15,26,3.76,11.23,6.89,23.65,3.82,35.43-2.73,10.48-10.49,20.73-17.61,28.71-8.81,9.88-22.36,10.88-34.74,12.93-14.57,2.4-29.52,3.62-44.17,1.23-5.67-.93-8.1,7.74-2.39,8.68,14.78,2.42,29.45,1.68,44.21-.48,12.36-1.81,27.55-2.83,37.79-10.7,4.48-3.44,7.9-7.85,11.25-12.34,4-5.31,8-10.7,10.91-16.67,5.89-12.07,5.83-25.1,2.83-38-2.8-12.05-7.24-24.83-14.79-34.78-7.33-9.65-17.48-14.59-29-17.51-5.77-1.46-11.64-2.54-17.31-4.33-6.63-2.09-12.17-6.08-18.53-8.75-11.22-4.72-23.85-1.48-34.54,3.22-23,10.1-40.27,31.8-42.55,57.07-.52,5.77,8.48,5.73,9,0Z"/><path class="cls-1" d="M169.45,90.91c-4.06,2.37-13.31,7.78-9.82,13.75,2,3.49,6.56,2.89,10,2.84,4.64-.06,9.29-.15,13.92-.42,3-.18,7,0,9.35-2.17l-7.07-5.45c-2.63,5.21-9.21,15.27-1.55,19.63,2.68,1.52,5.83.91,8.41-.46a67.83,67.83,0,0,0,6.05-4.1c2.26-1.54,2-2,3.94-.69,2.53,1.76,3.44,4.16,6.65,5.21a10.45,10.45,0,0,0,9.76-1.65,7.65,7.65,0,0,0,2.71-6.82c-.13-1.59,0-4.16-1.73-2.41,1.06-1.07,2.55-1.16,3.6-2.52,5-6.43-2.19-11.92-8-12.94-2.69-.47-2.7-.4-3.53-2.9A12.14,12.14,0,0,0,210,85.39a11.42,11.42,0,0,0-7.83-3.91,8,8,0,0,0-7.4,3.2c-.56.76-1.13,1.66-1.62,2.43-.61.95-2.18,1.16-.17.59-3.71,1-8.3-.74-12.22-.34a31.35,31.35,0,0,0-11.29,3.56c-5.15,2.65-.61,10.41,4.54,7.77,5.76-3,10.42-1.91,16.52-1.71a10.85,10.85,0,0,0,8.6-3.18c.45-.43,2.44-3.5,2.85-3.64,1.06-.35,1.6,4.06,2.07,5.26,1.27,3.29,7,7.43,10.82,6.19,1.2-.39,2.9-2.76.32-1.05a7,7,0,0,0-2.05,1.87,6.85,6.85,0,0,0-1.2,4.93c.2,2.36,1.49,4.42-1.29,1.93-1.47-1.31-2.44-3-4.12-4.11-4-2.65-7.82-1.47-11.5,1-1.35.92-2.69,1.87-4,2.78-1.12.76-3.48,1.34-2,2.48s1.54-1.22,2.13-2.47c.79-1.69,1.69-3.34,2.53-5,2.29-4.54-3.22-9-7.07-5.45,1.87-1.72,1.39-.56.32-.71a18.27,18.27,0,0,0-3.31.25c-2.55.15-5.1.23-7.65.3q-3.53.09-7.07.14a11.52,11.52,0,0,0-2.52,0c-.81.22-1-.39-.49,0l2.23,3.89,0-1.15-1.32,3.18A25.33,25.33,0,0,1,174,98.68C179,95.77,174.47,88,169.45,90.91Z"/><path class="cls-1" d="M241.19,121.28c4.58,12.61,7.93,26.83-.35,38.68-3.33,4.76,4.47,9.26,7.77,4.54,9.62-13.76,6.63-30.83,1.26-45.61-2-5.4-10.66-3.07-8.68,2.39Z"/><path class="cls-1" d="M233.48,177.14h-1.14a4.64,4.64,0,0,0-3.18,1.32,4.5,4.5,0,0,0,0,6.36,4.68,4.68,0,0,0,3.18,1.32h1.14a4.64,4.64,0,0,0,3.18-1.32,4.5,4.5,0,0,0,0-6.36,4.68,4.68,0,0,0-3.18-1.32Z"/></svg>