<svg id="Layer_1" data-name="Layer 1" xmlns="http://www.w3.org/2000/svg" viewBox="0 0 288 288"><defs><style>.cls-1{fill:#12387a;}</style></defs><title>icons</title><path class="cls-1" d="M198.88,249.58A89.6,89.6,0,0,0,264,214.19c18.7-24.7,19.59-55.94,16.15-85.54-1.9-16.36-3.51-33.94-13-47.93-1.26-1.86-4.09-3.12-6.16-1.61l-73.32,53.49c-7.32,5.34-14.43,11-22.28,15.49-6.71,3.88-13.52,7.6-20.21,11.52a209.85,209.85,0,0,0-20.08,13c-4.66,3.5-10,7.51-12.48,13-2.95,6.57,1.56,14.91,4.68,20.64a74.16,74.16,0,0,0,19.49,22.45c17.31,13.63,39.95,22,62.11,20.93,5.77-.27,5.8-9.27,0-9-18.3.86-36.66-5.23-51.75-15.43A70.43,70.43,0,0,1,127.69,206a51.36,51.36,0,0,1-5.78-11.42c-.35-1-.64-2-.94-3-.09-.3-.41-2.75-.43-1.49,0-.39,0-.53.57-1.46,3-4.54,7.83-7.91,12.21-11,6.22-4.33,12.74-8.21,19.3-12,6-3.45,12-6.76,18-10.23,6.74-3.93,12.88-8.73,19.17-13.33l75.74-55.26-6.16-1.61c9.91,14.63,11.09,34.48,12.62,51.59,1.62,18.06,1.49,36.76-5.07,53.92-10.63,27.81-38.46,47.86-68,49.81C193.13,241,193.09,250,198.88,249.58Z"/><path class="cls-1" d="M111.81,189.75c-1.72,12-5.49,27.13-.85,38.83,4.29,10.8,18.24,14.49,28.49,16.92,23.49,5.57,49.76,6.75,73.51,2.07,5.68-1.12,3.27-9.8-2.39-8.68-20.47,4-43,3-63.39-.93a110.48,110.48,0,0,1-13.92-3.56c-4.65-1.55-10.83-3.5-13.42-8-2.77-4.8-1.76-12.11-1.45-17.39.33-5.68,1.3-11.27,2.11-16.89s-7.86-8.11-8.68-2.39Z"/><path class="cls-1" d="M42.9,135.34c-7.62,1.05-17.19,1.79-24.17-2.05-10.43-5.74-.25-18.63,4.35-25.33C33.93,92.12,48.82,79.25,65,69,97.53,48.4,137.41,36,176,34.91c13.22-.36,33.28,2.72,31.8,20-.79,9.25-8.22,16.93-15,22.68-21.16,18-49.33,28.58-75.24,37.59-24.1,8.38-49.36,16.44-74.69,20.12-5.71.83-3.28,9.5,2.39,8.68,25.16-3.66,50.25-11.65,74.19-19.95A398.4,398.4,0,0,0,165.95,105c12.87-6.38,25.73-13.76,36.24-23.66C210,74,217,64.3,216.85,53.17,216.68,33.73,198,26.5,181.24,25.92c-20.58-.71-42.09,3.6-61.77,9.28A228.26,228.26,0,0,0,59.24,62C39.32,74.82,21.32,91.54,9.73,112.41c-2.89,5.2-5.91,11.37-4.55,17.49,1.13,5,5,9.1,9.5,11.43,9.29,4.8,20.6,4.07,30.62,2.69C51,143.23,48.57,134.56,42.9,135.34Z"/><path class="cls-1" d="M120,185.05c3.07,16.81,14,31.22,28.37,40.21,16.58,10.4,37,12.6,56,9.62s37.44-11.12,49.56-26.34c10.84-13.6,16.29-30.73,17.6-47.92,1.83-24.17-4.68-48.13-11.56-71.05C258.28,84,249.59,86.4,251.26,92c9.89,33,19.43,71,1.07,103-17.4,30.26-62.07,40.54-92.95,26.11-15.62-7.3-27.61-21.27-30.73-38.38-1-5.69-9.71-3.28-8.68,2.39Z"/><path class="cls-1" d="M168.69,175.2v6.72a4.5,4.5,0,0,0,9,0V175.2a4.5,4.5,0,0,0-9,0Z"/><path class="cls-1" d="M200.61,175.41l2.86,8.64A4.6,4.6,0,0,0,209,187.2a4.55,4.55,0,0,0,3.14-5.54L209.29,173a4.6,4.6,0,0,0-5.54-3.14,4.55,4.55,0,0,0-3.14,5.54Z"/><path class="cls-1" d="M227.71,148.38a15.88,15.88,0,0,1,3.28.8,13.67,13.67,0,0,1,2.32,1.42,4.62,4.62,0,0,0,6.36,0c1.61-1.61,1.86-4.79,0-6.36a18.86,18.86,0,0,0-9.57-4.54c-2.4-.33-4.83.58-5.54,3.14-.58,2.1.72,5.2,3.14,5.54Z"/><path class="cls-1" d="M228.55,184.13a11.6,11.6,0,0,1,4.36,7.39c.28,2.41,1.87,4.5,4.5,4.5,2.22,0,4.78-2.07,4.5-4.5a20.61,20.61,0,0,0-7-13.76,4.62,4.62,0,0,0-6.36,0c-1.61,1.61-1.87,4.79,0,6.36Z"/><path class="cls-1" d="M5.33,127.36c1.06,13,7.55,23.84,15.42,33.9A157.17,157.17,0,0,0,49.17,190c17.92,13.62,42.17,19.58,64.5,19.37,5.79-.05,5.8-9.06,0-9-19.52.19-41.26-4.67-57.27-16.15-9.67-6.94-18.08-15.59-25.64-24.73s-15.43-19.73-16.44-32.08c-.47-5.73-9.47-5.78-9,0Z"/><path class="cls-1" d="M209.12,54.19A144.07,144.07,0,0,1,210.73,117c-1.12,5.66,7.56,8.08,8.68,2.39A154.76,154.76,0,0,0,217.8,51.8c-1.4-5.62-10.08-3.24-8.68,2.39Z"/><path class="cls-1" d="M24.61,145.35c6.51,9.65,14,19.87,26.3,22a21.88,21.88,0,0,0,14.8-2.68c2.39-1.34,3.34-2.55,5.4-.4,1.41,1.47,2.35,3.46,3.63,5.06,5.91,7.43,13.75,5.41,19.29-1.14,1-1.18,2.38-3.64,3.84-4.26,1.68-.71,2.59.35,4.27.89,4.27,1.37,8.18-.17,11.19-3.3,1.78-1.86,4.31-7.44,7.32-7.21,1.9.15,4.15,2.86,5.63,3.91a14.15,14.15,0,0,0,6.2,2.7c8.48,1.25,12.25-6.77,15.9-12.82,2.17-3.59,3.11-5.08,7.28-3.68,4.61,1.55,9.06,2.2,12.9-1.41,2.84-2.67,3.92-6.44,5.69-9.79,1.37-2.6,2.28-3.26,5.27-3.57,2.82-.29,5.45-.27,8-1.77,5.29-3.1,6.75-9.57,12.25-12.47,4.43-2.33,8.76-3.28,12.07-7.24,4.71-5.63,11.54-15.87,10.63-23.64-.66-5.68-9.67-5.75-9,0,.64,5.5-5,14.11-8.58,18-2.67,2.91-6.91,3.6-10.3,5.49-4.58,2.55-6.45,6.16-9.61,10.06-3.3,4.08-9.22,1.85-13.51,4.66-3.2,2.1-4.83,5.53-6.38,8.88-.57,1.23-1.18,3.5-2.27,4.38-1.81,1.46-3.37.22-5.43-.49-3.65-1.27-7.34-1.22-10.66.9-2.82,1.8-4.72,4.77-6.38,7.59-1.18,2-2.82,6.58-5.1,7.66-3,1.44-6.28-2.92-8.68-4.38-3.4-2.06-7.35-2.72-11-.87-3.39,1.71-5.27,4.81-7.63,7.61-1,1.16-1.61,2.12-3,2.23-2,.16-4.29-1.83-6.59-1.73-3.43.15-6.14,2.17-8.4,4.59-1.33,1.42-4.46,6.79-6.77,6.07-2.72-.85-4.9-6.71-7.09-8.63-3.69-3.23-8.35-3.25-12.58-1.06-2.87,1.49-5,3.19-8.43,3.24a17.55,17.55,0,0,1-9.27-2.76c-5.82-3.56-9.72-9.59-13.45-15.11-3.22-4.78-11-.28-7.77,4.54Z"/><path class="cls-1" d="M43.13,184.06c6.93,6.11,14.17,5.39,21.94,1.6,6.06-3,12.3,6.86,18,8.7a14.45,14.45,0,0,0,10.58-.75,35.77,35.77,0,0,0,5.94-3.71c.47-.33,2.84-1.47,1.22-1.33-1.44.13-.39-.13-.1.29,1,1.47,4.87,2.7,6.49,3.14a17.1,17.1,0,0,0,11.08-1c5.29-2.16,3-10.87-2.39-8.68-2.89,1.18-5.19,1.67-8,.3-1.8-.87-3.35-2.21-5.33-2.68-6.78-1.62-10.41,7.87-17,5.74-5.7-1.84-8.94-8-15-9.52-7.57-1.86-14.18,7.49-20.92,1.55-4.33-3.82-10.72,2.52-6.36,6.36Z"/><path class="cls-1" d="M186.95,68.3c-27.18,16.52-56.38,29-86.41,39.28-12.92,4.43-25.89,8.79-39.18,12s-27.22,5.75-40.77,3.74l3.14,5.54c3.27-12.36,13.9-22,23.3-30A245.88,245.88,0,0,1,79.84,75.45,225,225,0,0,1,124.6,55.1c15.72-5.21,32.27-9.66,48.9-10.13a84.07,84.07,0,0,1,14.06.7c3.41.48,9.45.86,10.46,5,.85,3.49-2.19,7-4,9.66-2,2.83-4.15,6-7,8-4.74,3.26-.25,11.06,4.54,7.77,9.48-6.51,23.21-25.36,10.39-35-6.9-5.21-18.31-5.17-26.55-5.09a137.37,137.37,0,0,0-28.67,3.67C110.28,47.75,77,64,47.63,86.85,34.55,97,19.47,109.76,15.05,126.48c-.56,2.14.71,5.17,3.14,5.54,28.06,4.16,56.81-6.22,83-15.16,31.35-10.7,61.95-23.55,90.31-40.78C196.43,73.07,191.92,65.29,186.95,68.3Z"/><path class="cls-1" d="M66,92.68v3.84a4.5,4.5,0,0,0,9,0V92.68a4.5,4.5,0,1,0-9,0Z"/><path class="cls-1" d="M93.24,95.86l1.92,1.92a4.64,4.64,0,0,0,3.18,1.32,4.58,4.58,0,0,0,3.18-1.32,4.53,4.53,0,0,0,1.32-3.18,4.69,4.69,0,0,0-1.32-3.18L99.61,89.5a4.64,4.64,0,0,0-3.18-1.32,4.58,4.58,0,0,0-3.18,1.32,4.53,4.53,0,0,0-1.32,3.18,4.69,4.69,0,0,0,1.32,3.18Z"/><path class="cls-1" d="M113.35,73.54l2.88,1.92a4.5,4.5,0,1,0,4.54-7.77l-2.88-1.92a4.5,4.5,0,1,0-4.54,7.77Z"/><path class="cls-1" d="M142,70.6a5.79,5.79,0,0,0,2.16,7.83,6.35,6.35,0,0,0,3.26.91,5.53,5.53,0,0,0,2.7-.73,6.05,6.05,0,0,0,2-1.93,4.53,4.53,0,0,0,.45-3.47,4.59,4.59,0,0,0-2.07-2.69,4.54,4.54,0,0,0-3.47-.45l-1.07.45a4.52,4.52,0,0,0-1.61,1.61l-.06.08.7-.91-.13.14.91-.7a1.31,1.31,0,0,1-.23.14l1.07-.45-.26.07,1.2-.16a1.64,1.64,0,0,1-.36,0l1.2.16a2.16,2.16,0,0,1-.37-.1l1.07.45a2.39,2.39,0,0,1-.43-.24l.91.7a2.27,2.27,0,0,1-.35-.34l.7.91a1.9,1.9,0,0,1-.19-.32l.45,1.07a1.64,1.64,0,0,1-.08-.26l.16,1.2a1.37,1.37,0,0,1,0-.26l-.16,1.2a1.33,1.33,0,0,1,.07-.27l-.45,1.07a1,1,0,0,1,.09-.17,4.64,4.64,0,0,0,.45-3.47A4.5,4.5,0,0,0,142,70.6Z"/><path class="cls-1" d="M163.27,63.9a4.16,4.16,0,0,1,.58.37l-.91-.7a4.18,4.18,0,0,1,.6.62l-.7-.91a4.28,4.28,0,0,1,.42.75L162.8,63a4.07,4.07,0,0,1,.22.83l-.16-1.2a3.11,3.11,0,0,1,0,.34,4.73,4.73,0,0,0,1.32,3.18,4.5,4.5,0,0,0,7.68-3.18,8,8,0,0,0-4.08-6.81,4.74,4.74,0,0,0-3.47-.45,4.5,4.5,0,0,0-1.07,8.22Z"/></svg>