<svg id="Layer_1" data-name="Layer 1" xmlns="http://www.w3.org/2000/svg" viewBox="0 0 288 288"><defs><style>.cls-1{fill:#12387a;}</style></defs><title>icons</title><path class="cls-1" d="M186.47,19.25c6.14-1.14,11.33.28,12.44,7,.9,5.47-.55,11.4-2.36,16.54-2.74,7.77-7.86,14.77-12.45,21.53-6.41,9.46-13.34,18.56-20.29,27.62-13.17,17.2-26.52,34.42-36.62,53.67a150.79,150.79,0,0,0-11.9,29.31c-1.15,4.12-2.87,9-2.16,13.32.81,5,5.29,7.29,7.47,11.51,5.37,10.42-3.59,24-7.5,33.44-2.55,6.16-4.91,12.4-7.15,18.68-2,5.49-3.27,14.37-8.51,17.73l4.51,2.59c-.15-15.66,5.43-30.27,10.15-45,1.47-4.58,4.4-11.08,0-15a6.28,6.28,0,0,0-7.67-.81c-5.61,3.43-7.36,12.72-9,18.54-1.29,4.67-3.1,9.18-4.82,13.71-1,2.69-7.86,23-10,22.59l2.2,2.89c.77-10.21,3.87-19.92,7.06-29.58,2.67-8.08,6.78-17.36,6.93-26,.1-5.72-5.61-9.85-10.31-5.24-2.55,2.5-3.28,6.81-4.72,10-2,4.48-4.18,8.9-6.09,13.44s-3.59,9-5.21,13.55c-.83,2.33-1.62,4.68-2.52,7s-2.42,7.66-1.11,2c2.33-10.1,5.54-20,8.62-29.84,1.49-4.78,3.16-9.59,4.29-14.48.64-2.79.89-6-1.75-7.85C71.19,197.19,67.43,211,65.45,215c-4.08,8.29-8.65,16.51-12.22,25-1.08,2.57-2,5.21-3.09,7.77-.37.83-1.73,2.67-1.73,3.52l-.4.64,2,.65s.26-2.54.26-2.56c1.35-7.33,5.08-14.55,7.7-21.47,3.6-9.55,6.59-19.76,11.34-28.81,2.34-4.45,5.51-9.27,10.55-10.84,4-1.24,8.33-.73,12.39-1.69,7.16-1.69,11.77-7.4,14.87-13.73,3.81-7.78,6.48-16.18,9.64-24.23q6-15.23,12.33-30.3c9-21.18,18.66-42.08,29.48-62.38C163,48.28,167.53,40,172.3,31.89c3.24-5.5,7.7-11,14.17-12.64,3.74-.95,2.16-6.74-1.6-5.79-12,3-17.39,14.93-23,24.7-10.62,18.56-20.15,37.73-29,57.21-8.68,19.18-16.67,38.68-24.27,58.31-3.06,7.9-5.39,18-11.55,24.15-6.32,6.34-16.3,2.76-23.58,7.5s-10.68,13.58-13.62,21.24c-3.86,10.06-7.62,20.17-11.42,30.25-1.77,4.68-5.62,11.79-4.28,17,1.15,4.51,6.19,4.78,8.79,1.38,3.4-4.45,4.55-10.62,7-15.6q7.23-14.7,14.48-29.4c-.14.27,1.66-3.47,1.7-3.46-2.13-.62-2.22,2.4-2.63,3.4-.95,2.27-1.41,4.9-2.12,7.25-1.63,5.4-3.37,10.76-5,16.15-1.57,5.1-3.07,10.22-4.37,15.4-.88,3.5-2.78,8.24-1.37,11.84a5.09,5.09,0,0,0,6.82,2.93c4.13-1.72,5.6-7.85,7-11.6,4.07-10.92,8.44-21.51,13.17-32.16.43-1,2.26-6.93,3.26-7,.19,0-1.27,6.88-1.39,7.38-1.33,5.38-3.06,10.64-4.79,15.9-3.55,10.76-7,21.47-7.82,32.84a3,3,0,0,0,2.2,2.89c4.81,1,7.17-2.51,9-6.51,2.8-6,5.25-12.26,7.63-18.47,2.93-7.62,5.05-15.38,7.78-23,.38-1.07,2.59-7.86,4.22-7.62,2.1.31-3.81,16.42-4.3,17.91-4,12.33-7.64,24.8-7.51,37.88a3,3,0,0,0,4.51,2.59c3.65-2.34,5.63-5.6,7.18-9.59,2.41-6.22,4.36-12.63,6.71-18.88s4.88-12.53,7.6-18.68c2.21-5,4.57-10,5.59-15.38a24.25,24.25,0,0,0-.81-13.41,20.08,20.08,0,0,0-3.21-5.43c-2.83-3.46-5.13-5.07-4.11-10.21,2.39-12.06,7.27-23.71,13-34.55,11.22-21.39,26.44-40.26,41-59.41,7.64-10,15.13-20.22,21.8-30.94,3.87-6.23,7.2-12.43,8.81-19.64,1.36-6.08,2.11-13.42-1-19.1-3.73-6.71-11.21-7.36-18.07-6.09C181.08,14.17,182.69,20,186.47,19.25Z"/></svg>