<svg id="Layer_1" data-name="Layer 1" xmlns="http://www.w3.org/2000/svg" viewBox="0 0 288 288"><defs><style>.cls-1{fill:#12387a;}</style></defs><title>icons</title><path class="cls-1" d="M261,42.17c4.76-2.5,4.64,2.39,4.6,5.87s0,6.82-1.56,10a48.82,48.82,0,0,1-4.43,6.65c-.59.81-1.16,1.66-1.77,2.45-1.29,1.68-2.23,2-3.81,3.13a11.32,11.32,0,0,0-3.35,3.22c-.76,1.06-.72,1.69-1.79,2.67s-1.88,1.21-2.85,2c-1.47,1.27-1.2,2.79-2.2,4.12-1.22,1.63-3.93,1.46-5.58,2.67-1.44,1.05-1.54,2.28-2.51,3.54s-1,.93-2.78,1.69a6,6,0,0,0-1.62,1c-1.52,1.3-1.53,3.15-3.12,4.29-1.75,1.25-3.17,1.4-4.57,3.27-.69.91-.53,1.88-1.67,2.62-.77.5-2.28.43-3.17.85a5.66,5.66,0,0,0-3.1,3.17c-1,2.47-1.3,3.18-4,4a6.1,6.1,0,0,0-4,3c-1.21,2.21-.38,2-3,2.84a6.88,6.88,0,0,0-3.4,2.63c-.69.91-.62,2.17-1.66,2.89-.44.31-1.37,0-1.9.19a9.7,9.7,0,0,0-4,3.13c-1,1.17-.24.78-1.69,1.58-.63.35-1.53.34-2.22.73-1.79,1-1.93,2.37-3,3.93-2.26,3.44-7.83,1-10.65,4.66-.87,1.13-.92,3.8-2.15,4.27-1.43.54-6.61-2.3-8-2.73-5.54-1.8-11.6-3.36-17.48-2.87-11.06.93-18.63,11.52-26.06,18.5-9.36,8.8-17.68,18.6-26.06,28.31-8.89,10.3-17.94,20.47-26.92,30.68q-6.85,7.78-13.7,15.56c-4.25,4.8-8.63,9.78-14.21,13.08-5.15,3-14.06,5.56-18.15-.68s2.63-13.3,6.22-18,6.36-9.62,10.53-13.88a165.41,165.41,0,0,1,15.08-13c10.43-8.35,20.13-17.61,30.3-26.28,21.41-18.24,43.57-35.58,66.08-52.45q18.67-14,37.6-27.64c12.4-9,24.6-18.57,37.73-26.49,11.12-6.71,22.63-12.82,34-19.17,3.37-1.89.35-7.07-3-5.18-11.32,6.35-22.84,12.46-34,19.17-12.85,7.76-24.79,17.12-36.94,25.92q-18.5,13.4-36.83,27c-24.48,18.3-48.58,37.13-71.77,57-10.72,9.21-21.15,18.67-32.12,27.58-10.48,8.5-18.06,18.37-25.77,29.33C14.34,232,14.93,245,27,248.3c11.37,3.13,22.06-5.49,29.32-13.2,20.68-22,39.34-45.82,59.83-68,4.44-4.79,9.18-9.21,13.83-13.78,4.9-4.81,9.57-11,16.39-13.26s15.09,1,21.49,3.28c4.12,1.44,9.46,3.68,12.12-1.32,1.52-2.86.37-3.62,4.12-4a13.42,13.42,0,0,0,4.74-1c2-1,2.29-2.38,3.46-4.06,1.05-1.52.64-1.08,2.4-1.74a7,7,0,0,0,3.06-1.64c1.52-1.65.94-2.24,3-3s2.92-.95,4.33-2.64c1-1.23.47-2.25,2.22-3.19.76-.41,1.89-.25,2.72-.67,2.32-1.15,1.88-2.34,3-4.13,1-1.56,3.31-1,5.11-2.15a6.27,6.27,0,0,0,1.82-1.73c.74-1.1.58-3.7,1.43-4.47,1.44-1.29,4-.56,5.66-2.32a22.55,22.55,0,0,0,1.38-2.44c1.46-2,3-1.69,4.68-3a6,6,0,0,0,1.7-1.92,5.15,5.15,0,0,0,.56-2.08,4.91,4.91,0,0,1,1.66-.32c1.8-1.16,2.65-1.51,3.85-3.38.9-1.41,1.14-2.17,2.67-2.94,1.21-.61,2.51-.72,3.63-1.57,1.89-1.44,1.87-3.85,3.56-5.32.7-.61,1.81-.78,2.55-1.43,1-.89,1.29-2,2-3.06,1.63-2.39,4.15-3,6-5.24,3.8-4.48,8.42-10.54,9.68-16.33.76-3.49.55-7.2.58-10.74,0-2.32.2-4.81-1.09-6.88C267.74,34.16,262,34.88,258,37,254.54,38.79,257.57,44,261,42.17Z"/></svg>