<svg id="Layer_1" data-name="Layer 1" xmlns="http://www.w3.org/2000/svg" viewBox="0 0 288 288"><defs><style>.cls-1{fill:#12387a;}</style></defs><title>icons</title><path class="cls-1" d="M63,28.16c3.15-5.37,9.53-8.3,15.5-9.21,7.93-1.2,15.36,2.26,21.68,6.75,11,7.78,20.55,19.12,25.25,31.78a42.4,42.4,0,0,1,2.71,19c-.6,5.91-2.39,11.67-3,17.6-1.06,9.55.68,18.6,5.93,26.71,3.32,5.14,7.62,9.51,11.48,14.22,5,6.15,9.6,12.67,14,19.29,6.7,10.08,13.06,20.38,19.7,30.49,6,9.11,11.62,18.45,17,27.93,7.21,12.78,14.53,26.11,18.7,40.26,1.15,3.92,3,9.54,1.42,13.58-1.35,3.44-5.31,3-8.4,2.25-11.59-2.83-19.23-15.41-24.71-25.12-5.77-10.21-10.35-21-14.7-31.91-9.16-22.93-17.73-46.43-29.4-68.23-6-11.28-13.1-24.43-23.94-31.85-8.62-5.9-19.53-6.6-29-10.54C69.77,95.58,63.63,80.49,60.35,67.3,57,53.88,56.66,40.61,63,28.16c1.76-3.43-3.42-6.47-5.18-3C52.4,35.78,51,46.32,52.58,58.25S57.7,82.77,64.52,92.78c7.6,11.16,18.36,15,30.83,18.47,4.48,1.24,9,2.53,12.92,5,5.7,3.62,9.75,9.29,13.45,14.81,16.06,23.93,26,51.8,36.52,78.45a345.53,345.53,0,0,0,14.1,32.15c5.32,10.25,11.72,21,21.13,28s26.4,8.95,26.31-6.7c-.08-13.76-8-28.1-14.16-40-6.59-12.83-13.94-25.29-21.7-37.44-12.91-20.21-25.21-41.38-41.06-59.46-8.42-9.61-13.19-19.08-11.71-32.06.76-6.69,2.94-13.18,3.19-19.92a48.27,48.27,0,0,0-3.36-19C122.51,33.18,96,4.38,70,15.18c-5,2.06-9.42,5.26-12.17,10C55.91,28.47,61.09,31.49,63,28.16Z"/></svg>