<svg id="Layer_1" data-name="Layer 1" xmlns="http://www.w3.org/2000/svg" viewBox="0 0 288 288"><defs><style>.cls-1{fill:none;}</style></defs><title>knife</title><path class="cls-1" d="M275,60.35c2.92-1.18,7.05-.92,8.24,2a6.67,6.67,0,0,1,.06,3.86c-.72,3.45-1.26,8-2.45,11.26-1.72,4.69-7.47,9.06-10.77,12.69a6.54,6.54,0,0,1-2.41,1.92c-1,.38-2.21.23-3.21.69-2,.92-2.35,3.78-4.26,4.81-1.22.66-2.86.43-3.9,1.36s-1,2.28-1.81,3.24c-1.8,2.19-5.9.68-7.81,2.78-1,1.06-1.11,2.82-2.37,3.49-1.43.77-3.55-.35-4.68.82-.64.66-.59,1.74-1.08,2.52-1.2,1.89-4.44.78-6.14,2.25-1,.84-1.18,2.33-2.17,3.15a2.91,2.91,0,0,1-1.22.58c-1.72.4-3.91-.25-5.24,1s-1,3.32-2.24,4.47c-2,1.85-6.24-.32-7.54,2.08-.41.76-.31,1.74-.8,2.45-1.12,1.61-3.81.31-5.56,1.2S205.7,132.28,204,133s-3.85-.61-5.18.58c-.77.69-.83,1.93-1.59,2.63-1.27,1.15-3.45,0-5,.84-1.36.71-1.58,2.58-2.65,3.68-2.73,2.8-8.56-1-11.05,2-1,1.24-1,3.24-2.29,4.18s-3.25.17-4.72-.66c-5.75-3.23-11.21-6.45-17.64-8.13a21.77,21.77,0,0,0-6.1-.89c-3.71.11-7.15,1.81-10.47,3.47-4.56,2.28-8.06,5.73-12.32,8.45-14,9-26.67,20.16-39.62,30.63L45.1,212.34c-6.27,5.07-12.78,10.26-20.56,12.36a19.5,19.5,0,0,1-11.31,0,11.83,11.83,0,0,1-7.75-7.83c-.91-3.51.24-7.3,2.26-10.31,3-4.54,7.8-7.31,11.25-11.45a55.5,55.5,0,0,1,11.29-10c8.11-5.61,17.12-9.67,25.41-15C74.06,158.48,92.88,147.48,112,137c37.46-20.67,75.92-39.45,114.35-58.23a201,201,0,0,1,22.31-9Z"/></svg>