<svg id="Layer_1" data-name="Layer 1" xmlns="http://www.w3.org/2000/svg" viewBox="0 0 288 288"><defs><style>.cls-1{fill:none;}</style></defs><title>icons</title><path class="cls-1" d="M60.46,26.64c2.65-5,9.93-9.82,19-10.82,10.12-1.12,19.7,4.68,27.44,11.3,15.68,13.43,28,33.84,23.6,54-4.47,20.32-4.6,30.5,9.7,46.48C154.8,144,166,164.08,178.26,182.4c6.4,9.59,63.26,98,25.89,89.31a26.76,26.76,0,0,1-11.66-6.62c-16.4-14.84-28.25-49-34.55-64.31-10.74-26-20.58-53.58-37.06-76.1-12.07-16.49-20.73-13.84-38.47-20.62-7.28-2.78-13-8.71-17-15.45C58,75.92,51.84,52.33,56.56,35.4A64.73,64.73,0,0,1,60.46,26.64Z"/></svg>