<svg id="Layer_1" data-name="Layer 1" xmlns="http://www.w3.org/2000/svg" viewBox="0 0 288 288"><defs><style>.cls-1{fill:none;}</style></defs><title>icons</title><path class="cls-1" d="M193.12,14.85c4.66-3.8,7.74-6.62,12.64-9a12.25,12.25,0,0,1,10.74-.41c3.72,1.79,6.42,5.85,7.39,10.07a22.69,22.69,0,0,1-.91,12.4c-2.78,8.11-8.63,14.21-14.32,20.07L189.8,67.33,172,85.59c-5.51,5.66-11.18,11.23-16.71,16.93a226.48,226.48,0,0,0-17.88,20.37c-3.13,4.12-6.94,7.27-9.65,11.81-2,3.3-4,6.74-4.4,10.79a26.55,26.55,0,0,0,.42,6.87c1.2,7.39,4.06,14,6.9,21,.73,1.77,1.4,4,.29,5.3s-3.12.79-4.47,1.67c-3.29,2.13.16,9.29-2.93,11.72-1.21,1-3.14.82-4,2.17-.94,1.5,0,4.11-1.26,5.28-.77.7-2.05.51-2.82,1.22-1.32,1.22-.16,3.91-1,5.56s-3.51,1.51-4.5,3.16.07,4.95-1.67,5.85c-.77.4-1.76.09-2.57.39-2.56.95-.68,6-2.74,7.85-1.28,1.13-3.5.42-4.76,1.56s-.86,3.74-1.41,5.55a2.87,2.87,0,0,1-.69,1.22c-.92.92-2.46.85-3.4,1.75-1.64,1.57-.76,5.34-2.8,6.28-.84.39-1.94.11-2.67.68-1.29,1-.32,3.55-1.22,5-.79,1.24-2.61,1.05-3.77,1.9-2.3,1.67-1.09,6.47-3.48,8-1.05.68-2.54.48-3.47,1.34s-.93,2.79-1.71,4c-1.21,1.89-4.17,1.73-5.27,3.71-.56,1-.49,2.32-1,3.38a6,6,0,0,1-2.17,2.26c-4,2.89-8.93,8.33-13.87,9.27-3.43.65-8.14.32-11.74.42a6.71,6.71,0,0,1-4-.85c-2.89-1.89-2.82-6.48-1.38-9.44l5.47-12.59,6.26-14.42a202.67,202.67,0,0,1,11-22.66c3.72-6.39,8.4-14.38,13.11-22.4,4.36-7.41,8.73-14.84,12.39-21,4.46-7.56,7.85-13.28,8.82-14.91,2.63-4.39,5.17-8.57,7.2-11.91,1.33-2.2,8.72-14.14,16.29-26.13,3.93-6.22,7.9-12.45,11.1-17.33q10.47-16,21.43-31.53,8.42-11.91,17.19-23.5c6.09-8,11-17.1,17.38-24.86A68.19,68.19,0,0,1,193.12,14.85Z"/></svg>