<svg id="Layer_1" data-name="Layer 1" xmlns="http://www.w3.org/2000/svg" viewBox="0 0 288 288"><defs><style>.cls-1{fill:none;}</style></defs><title>icons</title><path class="cls-1" d="M192,11.67c5.9-1.22,10-.4,12.69,1.71,3.81,3,4.87,8.53,4.41,14.52a50.35,50.35,0,0,1-6,19.58c-2.47,4.27-5.08,8.45-7.79,12.57q-3.58,5.43-7.38,10.72t-7.61,10.37c-3.76,5-7.58,10-11.39,15-4.39,5.73-8.77,11.47-13,17.29q-3.34,4.57-6.57,9.25c-2.69,3.9-5.3,7.86-7.8,11.88q-3.25,5.24-6.22,10.62a174.35,174.35,0,0,0-9.1,19.11,132.78,132.78,0,0,0-6.53,21.05c-.5,2.3-.93,4.76-.15,7,.95,2.71,3.46,4.5,5.25,6.75,7.35,9.19,2.84,21-1.32,30.17-5.73,12.68-10.63,25.8-15.08,39-1.44,4.25-3.13,8.91-7.08,11-.45-18.33,7.15-35.74,12.42-53.3.71-2.35,1.23-5.28-.57-7-7.38-6.85-12.21,16.84-13.32,19.94-4.09,11.34-8.37,22.62-13.38,33.58-1,2.11-3,4.61-5.07,3.54,1.19-19.4,10.93-37.24,14.44-56.36.4-2.19.4-5-1.62-6s-4.4,1.2-5.12,3.4a79.1,79.1,0,0,1-4.34,10.3,239.91,239.91,0,0,0-9.45,22.69,150.27,150.27,0,0,1-5.57,14.49c-.82,1.72-2.41,3.68-4.2,3s-1.78-3.2-1.38-5.09c3.62-16.94,9.63-32.66,14.15-49.27a6.08,6.08,0,0,0,.19-3.86c-.5-1.21-2.23-2-3.16-1a3,3,0,0,0-.53.84L57,245.35c-1.09,2.22-5.26,14.7-7.35,15.34-5.29,1.62-1.06-9.69-.19-12L62.91,213c2.64-7,5.42-14.22,10.63-19.6,7.83-8.09,16.19-3.27,24.29-7.74,6.78-3.75,10.29-12.88,12.87-19.69,2.9-7.62,6.17-15.67,9.67-23.92,2.48-5.85,5.08-11.79,7.74-17.77,4-8.93,8.12-17.92,12.24-26.68,3.39-7.22,6.77-14.3,10.05-21.08,2.26-4.68,4.47-9.21,6.6-13.56,3.21-6.54,6.23-12.66,9-18.18l7.25-14.57c1.48-2.51.94-2.54,4.49-7.49A25,25,0,0,1,192,11.67Z"/></svg>