<svg id="Layer_1" data-name="Layer 1" xmlns="http://www.w3.org/2000/svg" viewBox="0 0 288 288"><defs><style>.cls-1{fill:none;}</style></defs><title>icons</title><path class="cls-1" d="M207.24,20.24c4.62-4.82,9.74-8.4,14.19-9.15,4.76-.8,8.76,1.61,10.59,9.15,1.08,4.42.71,9.3-.7,14.44a68.35,68.35,0,0,1-6.1,14.44A175,175,0,0,1,208,74c-8.19,10.15-16.55,19.15-21.77,25.2-3.15,3.65-6.35,7.3-9.56,11-4.07,4.64-8.14,9.31-12.16,14-5.58,6.57-11,13.25-16.14,20.13-3.26,4.4-6.38,8.88-9.3,13.46S133.46,167,131,171.86a47.6,47.6,0,0,0-4.88,13.75c-1.14,6.79,0,12.39,1.46,19.37a138.53,138.53,0,0,1,2.27,13.93c.86,8.36-2,16.78-6.62,23.84a82.31,82.31,0,0,1-13.44,15.5,90.65,90.65,0,0,1-19,13.44,63.71,63.71,0,0,1-14.41,5.49,59.63,59.63,0,0,1-10.32.5,20.24,20.24,0,0,1-10.1-3.46,32.08,32.08,0,0,1-9.53-9.53,29.67,29.67,0,0,1-4.46-15.4,61.34,61.34,0,0,1,2-16.5,87.63,87.63,0,0,1,9.46-23.53,60.41,60.41,0,0,1,16.36-18.48,43.63,43.63,0,0,1,14.68-6.94c9.2-2.36,16.27-4.59,22-8a34.53,34.53,0,0,0,10-9,61.05,61.05,0,0,0,8-15A207.61,207.61,0,0,1,134.9,129.6c3.77-7,7.85-14,11.94-20.9,4-6.74,8-13.43,11.82-20.13C160,86.26,163.6,80,168.6,72c4-6.37,8.82-13.85,14-21.36S193.48,35.59,199,29.11C203,25,202.3,25.8,207.24,20.24Z"/></svg>