<svg id="Layer_1" data-name="Layer 1" xmlns="http://www.w3.org/2000/svg" viewBox="0 0 288 288"><defs><style>.cls-1{fill:#12387a;}</style></defs><title>icons</title><path class="cls-1" d="M221.59,20.77c8.49-3.3,14,3.61,12.62,11.89C233.1,39.25,228.59,44.72,224,49.3c-9.38,9.4-19.48,18.17-29.22,27.19s-19.89,18.1-29.68,27.31c-4.65,4.38-9.21,8.88-13.47,13.65-3.76,4.21-8.09,8-11.5,12.54-2.78,3.67-5.37,7.84-6,12.48-.78,5.78.8,12.05,2.53,17.52.75,2.38,3.43,6.75,3.2,9.17-.19,2-2,1.39-3.67,2.67-3.55,2.8-.92,8.15-4,10.56-1.26,1-2.57.9-3.58,2.46-.82,1.26-.49,3-1.47,4s-2.31.89-3.19,2.58a18.36,18.36,0,0,0-.61,2.52c-.47,1.28-.52,1.25-1.64,2.22-1.31,1.12-2.41,1.45-3.17,3.12-.34.75-.22,1.87-.6,2.52-2.46,4.17.69-.27-.68.68s-2.55.73-3.56,2.33-.57,4.35-1.87,5.36-3.23.52-4.61,2.15-1.07,4-2.7,5.65c-1.13,1.14-2.52,1.17-3.48,2.79-.41.69-.42,1.71-.85,2.33-.89,1.3-1.58,1.1-2.87,1.94-1.63,1.06-1.41,2.41-2.2,3.88-1,1.88.65,0-1.15,1.51a16,16,0,0,1-1.64.71,6.9,6.9,0,0,0-2.56,3.34c-.35.85-.35,2.44-.88,3.14-.76,1-1.51.71-2.46,1.32-2,1.27-2.61,2.82-4.21,4.48-1.39,1.45-3.34,1.94-4.54,3.62-1.62,2.26-2.16,4.07-4.55,5.83s-4.68,3.79-7.35,5.14c-2.88,1.45-16.55,3.15-15.67-2.21.28-1.71,1.63-3.6,2.4-5.1,6.68-13.16,12.88-26.87,20.85-39.3,14.85-23.18,30.45-46,46.18-68.56,17.63-25.33,35.9-50.24,55.55-74,14.42-17.47,26.62-37.46,47.2-48.35,3.41-1.81.39-7-3-5.18a89.92,89.92,0,0,0-19.35,13.93c-9.92,9.35-17.34,21.3-26,31.72-19.07,22.83-36.87,46.7-54,71q-26,37-50.7,74.92c-8.76,13.42-15.47,28.28-22.72,42.56-2.57,5.07-4.41,13.15,2.8,15.36,4.48,1.38,11.83,1.12,16.3-.18,5-1.45,10.17-5.61,14-9,1.77-1.56,2.09-3.56,3.6-5.1s3.37-1.61,4.57-3.39c1.06-1.56.52-1.72,2.19-3,.72-.53,1.68-.57,2.43-1.16,1.73-1.36,1.79-3,2.62-4.86,1.08-2.38,3-2.14,4.62-3.95.68-.76.7-1.58,1.2-2.43l.11-.8q-.44-1.4,1.27-1c1.4-1,2.21-1.29,3.06-2.89.43-.81.39-2.27.92-2.93.82-1,2.56-1.16,3.52-2.09,1.9-1.85,1.24-4.44,3.22-6,1.25-1,2.95-.63,4.18-2.16s.61-4.19,1.64-5.47c.26-.32,2.81-.64,3.75-1.69,1.5-1.68.94-3.85,2.6-5.48,1.34-1.31,2.85-1.33,3.73-3.31.77-1.74.48-2.57,1.66-3.85.54-.59,1.37-.77,1.94-1.48.85-1.06.62-2.16,1.18-3.24.86-1.67.67-.75,2-1.83a12.57,12.57,0,0,0,2.26-1.63,7.75,7.75,0,0,0,1.59-4c.19-1.13.05-2.28.22-3.4.38-2.5.07-1.11,1.71-2.28,1.86-1.32,3.58-1,4.52-3.59,1.71-4.78-2.61-11.47-3.92-16-2.22-7.62-3-14.21,1.58-21.09,4-6,9.89-11.32,14.83-16.6,5.41-5.79,11.2-11.2,17-16.54q19.09-17.44,38-35.05c10-9.22,23.8-19,26.56-33.15,2.4-12.34-7-24.31-20-19.27C216.43,16.37,218,22.18,221.59,20.77Z"/></svg>