<svg id="Layer_1" data-name="Layer 1" xmlns="http://www.w3.org/2000/svg" viewBox="0 0 288 288"><defs><style>.cls-1{fill:#12387a;}</style></defs><title>icons</title><path class="cls-1" d="M207.3,17.19c6.37.48,6,12.46,5.23,16.51a54.56,54.56,0,0,1-5.23,14.45c-4.82,9.57-11.13,18.4-17.7,26.83-13.2,16.93-27.47,33-40.61,50a246.66,246.66,0,0,0-20.73,30.58c-5.15,9.23-10.29,19.3-9.51,30.18.7,9.84,5.33,19.33,4.83,29.27-.6,12-8.89,22.33-17.17,30.34-13.49,13.07-41,29.35-54.35,6.7-6-10.2-3.22-23.67.2-34.28,3.36-10.44,8.92-20.64,17.26-27.94,13.31-11.65,33.18-10.08,44.56-24.86,6.31-8.19,8.76-18.53,12.92-27.83,5.31-11.87,11.71-23.21,18-34.59C153,88,161.48,74,170.88,60.26c5.76-8.44,11.67-16.8,17.86-24.93,2.94-3.86,5.95-7.67,9.11-11.34,2.45-2.85,5.25-6.76,9.46-6.79,3.86,0,3.87-6,0-6-8,.06-13,7.51-17.47,13.07-6.15,7.6-11.93,15.5-17.57,23.49-8.86,12.56-18,25.32-25.45,38.82-6.72,12.25-13.64,24.46-19.94,36.93-2.82,5.6-5.47,11.28-7.83,17.08-2.44,6-4.26,12.21-7.66,17.75-4.89,8-12.55,12.22-21.2,15.18C79.82,177.07,70.63,180,62.72,188c-7.66,7.81-12.91,17.79-16.25,28.15-3.56,11.07-5.94,24.26-1.33,35.38,3.68,8.89,12.82,17.13,22.75,17.79,10.3.69,20-3,28.58-8.46a89.17,89.17,0,0,0,25-23.91c7.4-10.63,9.2-21.67,6.68-34.25-2.27-11.34-5.27-20.89-.67-32.2,5.29-13,13.58-25,21.91-36.23,16.11-21.69,34.78-41.41,50.65-63.27,7.19-9.91,14.36-20.79,17.57-32.75,2.43-9,2.21-26.14-10.32-27.07C203.45,10.9,203.46,16.91,207.3,17.19Z"/></svg>